<svg width="138" height="44" viewBox="0 0 138 44" fill="none" xmlns="http://www.w3.org/2000/svg">
<g clip-path="url(#clip0_1_681)">
<path d="M127.009 30.212C127.125 30.6524 126.769 30.3814 126.594 30.3052C125.906 29.9269 125.254 29.4436 124.652 28.8654C123.49 27.8263 122.236 26.9733 120.917 26.3247C119.656 25.8779 118.466 25.1409 117.403 24.1481C117.159 23.9562 116.898 23.8054 116.626 23.6992C116.553 23.6534 116.472 23.6354 116.392 23.6474C116.312 23.6594 116.236 23.7008 116.173 23.767C116.15 23.8058 116.134 23.8508 116.127 23.8988C116.119 23.9467 116.12 23.9962 116.13 24.0436C116.139 24.0909 116.157 24.1349 116.181 24.1721C116.205 24.2092 116.236 24.2387 116.27 24.2582C116.917 24.7917 116.917 25.5032 117.312 26.1468C116.965 25.9984 116.625 25.8201 116.296 25.6133C115.525 25.2575 114.703 24.6986 113.978 24.7663C113.012 24.8699 112.04 24.6725 111.143 24.1904C110.127 23.6772 109.014 23.5913 107.958 23.9448C107.557 24.0719 105.732 23.5722 105.583 23.208C105.272 22.4542 104.761 22.4119 104.165 22.3611C103.534 22.2976 102.912 22.1297 102.314 21.8614C101.018 21.3312 99.6877 20.9625 98.3393 20.7604C97.9345 20.7032 97.5325 20.6155 97.1353 20.4979C95.5365 19.9558 93.8664 19.8119 92.3064 19.0666C91.9172 18.9049 91.5034 18.8729 91.1024 18.9734C90.7988 19.0498 90.4868 19.0498 90.1832 18.9734C88.9564 18.6078 87.6996 18.4428 86.4417 18.4822C85.1148 18.4822 83.723 18.1604 82.5126 18.6854C83.1599 18.9056 83.969 19.0242 84.092 19.9474L82.7392 19.8373C82.1825 19.7864 81.6646 19.7356 81.7099 18.9903C81.7123 18.915 81.7021 18.8399 81.6799 18.7703C81.6578 18.7006 81.6242 18.6382 81.5816 18.5874C81.5391 18.5365 81.4885 18.4985 81.4335 18.4759C81.3785 18.4534 81.3204 18.4468 81.2633 18.4568C80.9137 18.4568 80.6807 18.6685 80.7519 19.0242C80.8749 19.634 80.3053 19.5408 80.1434 19.3545C79.6774 18.821 79.2696 19.1174 78.8488 19.2783C78.529 19.4422 78.189 19.5283 77.8455 19.5324C76.1884 19.3715 74.609 19.9474 72.9972 20.0575C73.9811 20.5656 74.939 21.0399 76.0783 20.5063C76.4952 20.3206 76.9326 20.2261 77.3729 20.2268C79.8392 20.2268 82.3055 20.3285 84.7652 20.5571C84.9424 20.5642 85.1184 20.5983 85.2896 20.6588C86.5474 21.178 87.8548 21.4631 89.1734 21.5057C89.6169 21.4675 90.0608 21.5692 90.468 21.8021C89.3417 22.3865 88.2413 21.8953 87.1732 21.8021C85.9951 21.692 84.8041 21.5819 83.626 21.6243C82.4278 21.5429 81.2264 21.6195 80.0399 21.8529L82.1825 22.234C81.6972 22.3849 81.1987 22.4504 80.7001 22.4288C79.7874 22.2933 78.8682 22.251 77.9491 22.2256C77.4344 22.1186 76.9101 22.1186 76.3955 22.2256C75.53 22.5349 74.6386 22.7027 73.7415 22.7253C73.0942 22.8184 72.5181 22.6406 71.942 22.7253C69.8901 23.1402 67.741 22.9539 65.7343 23.6992C65.5261 23.7908 65.3062 23.8282 65.087 23.8093C64.0254 23.6569 63.0156 24.1735 61.967 24.182C61.5721 24.182 60.8277 24.182 61.3973 24.9527C61.5203 25.1051 61.3132 25.2152 61.1578 25.3084C60.7198 25.5596 60.2441 25.6783 59.7661 25.6556C59.1188 25.6556 59.0411 25.4354 59.3907 24.6816C58.8599 24.7579 58.0378 24.597 58.0508 25.1983C58.0508 26.0452 57.6494 26.0452 57.0474 26.1807C56.4809 26.416 55.8671 26.3585 55.332 26.0198C54.6071 25.3422 54.3093 25.3338 53.3901 25.698C52.4709 26.0621 51.7265 26.5449 50.7167 26.3077C50.3154 26.1976 49.6228 26.3077 49.4609 27.0107C49.3703 27.4087 49.0467 27.5612 48.6842 27.6459L46.7423 28.0693C47.176 27.4765 47.2666 27.0784 46.4639 27.2224C45.8976 27.2405 45.3349 27.3457 44.7874 27.5358C44.1157 27.8147 43.4301 28.0326 42.7354 28.1879C40.5475 28.7215 38.3531 29.2381 36.3788 29.814C37.7188 29.1534 39.3888 28.9671 40.8712 28.01C39.6154 28.7553 38.3272 28.5097 37.0715 28.857C38.1266 28.4674 39.2141 28.1794 40.308 27.8576C40.8 27.7306 41.143 27.5442 40.5734 27.1631C40.5022 27.1123 40.5346 26.9429 40.5022 26.7481C42.0465 26.6026 43.5686 26.1838 45.0269 25.5032C44.8114 25.2599 44.5427 25.1118 44.2591 25.0798C43.9756 25.0479 43.6915 25.1338 43.4474 25.3253C42.5477 25.9181 41.3696 25.6725 40.4957 26.4686C40.3973 26.543 40.2857 26.5821 40.1721 26.5821C40.0584 26.5821 39.9468 26.543 39.8484 26.4686C39.7234 26.4253 39.5926 26.418 39.4652 26.4472C39.3378 26.4765 39.2167 26.5416 39.1105 26.638C38.1913 27.2478 37.2074 27.0446 36.2623 27.2393C36.1902 27.267 36.1127 27.2579 36.0455 27.2139C35.9782 27.1699 35.9262 27.0943 35.8998 27.0022C35.8998 26.8159 36.0487 26.6973 36.2299 26.638L39.4665 25.6302C40.3792 25.3422 41.3696 25.266 42.1528 24.5546C40.6964 24.6478 39.3564 25.6641 37.8158 25.6895C38.1654 24.995 39.0328 24.309 37.7058 24.2328C37.8353 23.9956 38.01 23.6145 37.6152 23.6907C36.6766 23.8771 35.8286 23.3859 34.8576 23.9448C34.547 24.1462 34.1938 24.2058 33.8543 24.1142C33.8543 23.5552 34.7087 23.8093 34.7799 23.1402C32.838 23.7162 30.9349 23.9279 29.0124 24.4445C29.8993 23.6484 31.3492 23.6992 31.8606 22.2933C31.2418 22.2806 30.6256 22.3979 30.0352 22.6406C27.9703 23.6823 25.8212 24.3344 23.7174 25.1813C22.753 25.5286 21.7755 26.2146 20.824 26.2739C19.8848 26.4838 18.9763 26.8838 18.1312 27.4595C17.7096 27.7317 17.2775 27.9748 16.8365 28.1879C14.6939 28.8485 13.0886 30.8896 11.1337 32.0244C11.0942 32.0559 11.0572 32.0928 11.0237 32.1346C9.9815 33.1254 8.93288 34.1248 7.96839 35.2343C6.51194 36.9281 4.87425 38.3171 3.52785 40.1634C2.49612 41.6941 1.28315 42.998 -0.0647125 44.0253C1.17812 42.5771 2.04549 41.1712 3.10708 39.994C4.45218 38.2246 5.90716 36.6042 7.45703 35.1496C7.53148 35.0943 7.59343 35.0143 7.63663 34.9177C7.67983 34.821 7.70273 34.7111 7.70301 34.5991C7.70301 34.3874 7.52823 34.3958 7.33403 34.5229C7.13984 34.6499 6.78382 34.9294 6.68673 34.633C6.58963 34.3365 6.90681 34.0147 7.17221 33.786C8.14317 32.8714 9.15943 32.0922 10.1498 31.2453C13.2699 28.7045 16.6229 26.7481 19.9242 24.6732C21.8661 23.4875 23.7692 22.3357 25.75 21.3617C26.5305 21.0613 27.2554 20.5539 27.8796 19.8711C26.229 20.3539 24.8179 21.2431 23.3485 21.3787C23.9181 21.0907 24.3453 20.608 24.8696 20.3285C25.4388 20.0252 26.0426 19.8477 26.6562 19.8034C26.9022 19.8034 27.1223 19.5408 27.1287 19.3122C27.1287 18.4652 27.8796 18.1604 28.5528 17.847C29.0901 17.5929 29.6597 17.4151 30.2099 17.2203C30.9026 16.9747 31.5758 16.746 31.88 15.9668C32.0483 15.5434 32.5273 15.4502 32.974 15.2893C33.8098 15.062 34.627 14.7302 35.4143 14.2984C36.1134 13.8072 36.8967 13.3753 37.7188 12.7655L36.9743 12.884C36.0422 12.9941 36.0487 12.9433 36.1976 12.0964C36.2752 11.656 36.683 11.5967 36.929 11.3681C37.175 11.1394 37.2332 11.114 37.162 10.9446C37.0908 10.7752 36.8967 10.843 36.7025 10.8684C34.2937 11.2664 31.9241 11.9989 29.6338 13.0534C27.4394 13.9003 25.2839 15.0522 22.9601 16.2802C24.2547 14.8912 26.0413 14.5864 27.0187 13.1974C27.2132 13.0245 27.4341 12.9089 27.666 12.8586C29.828 12.0879 31.8671 11.0293 33.9514 10.1654C36.0612 9.44418 38.1363 8.55899 40.1656 7.51456C41.5638 6.70998 43.2468 6.49825 44.7809 5.91388C45.5512 5.60899 46.4186 5.60052 47.1242 5.06696C47.4429 4.9155 47.7847 4.86613 48.121 4.92298C49.2862 4.82135 50.5484 4.8637 51.5841 4.27932C52.9888 3.4324 54.7301 4.27932 55.9923 3.0767C56.1295 3.0476 56.2694 3.0476 56.4066 3.0767C57.0853 3.16188 57.7697 3.1191 58.4391 2.94966C60.6529 2.50079 62.9703 2.82262 65.1388 1.94182C65.32 1.8656 65.6113 2.01804 65.8573 2.00957C67.2749 2.00957 68.6343 2.4415 70.136 2.09427C70.8116 1.94923 71.5024 1.9809 72.1686 2.18743C72.7946 2.35687 73.4378 2.38836 74.0717 2.28059C75.8393 2.13803 77.613 2.1947 79.3731 2.44997C81.7488 2.65323 84.1373 3.11904 86.4935 3.55097C89.141 4.03372 91.8015 4.56728 94.449 5.24481C94.4101 5.60899 94.0735 5.51583 93.6981 5.46501C92.8696 5.36338 92.1769 4.85523 91.3613 4.74513C88.3384 4.36402 85.3672 3.69495 82.3572 3.4324C81.6623 3.35507 80.9628 3.38349 80.2729 3.51709C81.0667 3.88091 81.9049 4.05029 82.7456 4.01678C83.5452 3.98275 84.3441 4.1084 85.1148 4.38942C85.9846 4.67248 86.8697 4.86785 87.7623 4.9738C89.9558 5.28886 92.1326 5.77816 94.2807 6.43897C96.7081 7.2012 98.9608 8.49699 101.44 9.15759C101.498 9.15759 101.55 9.29309 101.615 9.38626C101.427 9.47095 101.226 9.5387 101.052 9.64033C100.773 9.80972 100.165 9.64033 100.288 10.2416C100.411 10.843 100.896 10.9785 101.349 11.0886C104.146 12.0032 106.58 13.8834 109.292 15.0691C109.518 15.1707 109.693 15.357 109.538 15.5942L104.741 13.6463C103.612 13.0476 102.421 12.6764 101.207 12.5453C100.82 12.5021 100.447 12.3364 100.119 12.0625C99.8773 11.8562 99.6031 11.7231 99.3168 11.6729C98.0651 11.4496 96.8261 11.1186 95.6077 10.682C95.4336 10.5888 95.2448 10.5525 95.0576 10.5761C94.8704 10.5997 94.6904 10.6826 94.5331 10.8176C94.7791 11.2834 95.1805 11.2918 95.5688 11.4019C97.3684 11.944 99.1679 12.4775 100.922 13.2059C101.915 13.6235 102.89 14.1126 103.841 14.671C105.065 15.357 106.398 15.9668 107.725 16.5851C108.508 16.9108 109.275 17.2954 110.023 17.7369C113.124 19.5917 116.27 21.3278 119.312 23.352C120.031 23.8517 120.749 24.5461 121.617 24.5461C121.75 24.6036 121.877 24.6864 121.992 24.7917L126.238 27.9254C126.874 28.3338 127.461 28.8616 127.98 29.4922C127.527 29.7378 126.743 29.2465 127.009 30.212ZM45.9525 23.6145C45.5836 23.2503 45.2664 23.5044 44.8715 23.8686C45.0497 23.9776 45.2493 24.0117 45.4429 23.9662C45.6364 23.9207 45.8145 23.7979 45.9525 23.6145ZM41.9392 9.11524C42.8713 9.52176 43.6999 8.94586 44.5284 8.68331C44.0964 8.52894 43.6453 8.48764 43.2009 8.56176C42.7566 8.63587 42.3279 8.82396 41.9392 9.11524ZM46.4704 24.9188C46.2891 25.3253 46.9623 25.4269 46.7228 25.8927C46.6387 26.0621 46.9364 26.1807 47.176 26.1045C47.4155 26.0282 47.7068 25.7996 47.6291 25.698C47.1371 25.0797 47.8233 25.1136 48.1404 24.851C48.4576 24.5885 48.9107 24.5546 48.9172 24.0888C48.0968 24.2936 47.288 24.5709 46.4963 24.9188H46.4704ZM49.2085 22.793C49.1279 22.7751 49.045 22.7898 48.971 22.8352C48.8969 22.8806 48.8353 22.9546 48.7942 23.0471C48.723 23.2334 48.8395 23.335 49.0596 23.3012C49.2797 23.2673 49.3833 23.1911 49.4221 23.0302C49.4609 22.8692 49.3509 22.8184 49.2344 22.793H49.2085ZM50.9498 23.5637C50.4384 23.3943 49.9076 23.1657 49.4739 23.8517C49.4078 23.9555 49.3227 24.0356 49.2264 24.0845C49.1302 24.1334 49.026 24.1495 48.9237 24.1311C49.5445 24.458 50.2353 24.4761 50.8656 24.182C50.9706 24.1315 51.0625 24.0435 51.131 23.9279C51.2734 23.7331 51.131 23.6145 50.9757 23.5637H50.9498ZM57.6559 22.5728C58.4974 22.395 59.2677 22.9031 59.8697 22.0647C59.5116 21.8309 59.1055 21.7541 58.7115 21.8456C58.3175 21.9371 57.9565 22.1921 57.6818 22.5728H57.6559ZM65.6308 21.0907C67.7539 21.0907 71.2882 20.7943 72.1686 20.3962C69.9838 20.2318 67.7922 20.4655 65.6566 21.0907H65.6308ZM76.8551 18.3382C76.6739 18.3382 76.4991 18.3382 76.4926 18.5415C76.4861 18.7447 76.6091 18.7447 76.7451 18.7532C76.881 18.7617 77.1011 18.7532 77.1076 18.5584C77.114 18.3636 77.0234 18.3551 76.881 18.3382H76.8551Z" fill="#ED5C01"/>
<path d="M103.091 25.41C100.638 24.5631 98.1262 24.1227 95.6599 23.3266V23.0217C98.178 23.5553 100.664 24.2921 103.136 25.0967L103.091 25.41Z" fill="#ED5C01"/>
<path d="M125.404 30.407C125.54 30.5595 125.74 30.695 125.682 30.8898C125.624 31.0846 125.3 31.0846 125.151 30.9491C124.142 30.0344 122.905 29.4839 121.954 28.0356C123.236 28.4419 124.421 29.2566 125.404 30.407Z" fill="#ED5C01"/>
<path d="M90.2868 20.1846C91.8209 19.7865 92.9537 20.9722 94.4296 21.1924C92.533 21.4888 91.3678 21.1839 90.2868 20.1846Z" fill="#ED5C01"/>
<path d="M36.6115 24.5887C35.5823 25.5372 35.5953 25.5288 34.3848 24.7157C35.2716 24.2076 36.0548 23.8095 36.6115 24.5887Z" fill="#ED5C01"/>
<path d="M88.7394 3.10229C87.9262 2.94233 87.1362 2.62254 86.3961 2.15374C87.2303 2.01096 88.0784 2.10631 88.8818 2.43322C89.1536 2.53485 89.3219 2.67883 89.2119 2.91597C89.1548 3.00261 89.0801 3.06615 88.9964 3.09915C88.9127 3.13216 88.8235 3.13324 88.7394 3.10229Z" fill="#ED5C01"/>
<path d="M51.3187 27.0022C51.9207 26.4178 52.6134 26.7058 53.5325 26.5364C52.8852 27.3833 52.1343 27.2817 51.5906 27.6543C51.4976 27.7072 51.3945 27.7218 51.2951 27.6961C51.1956 27.6704 51.1045 27.6056 51.0339 27.5103C50.9109 27.2817 51.1763 27.1462 51.3187 27.0022Z" fill="#ED5C01"/>
<path d="M132.019 33.6592C132.93 34.3339 133.655 35.3685 134.09 36.6149C133.016 35.9882 132.601 34.9042 132.019 33.6592Z" fill="#ED5C01"/>
<path d="M78.3957 23.1573C78.9006 22.9794 79.4444 23.3267 79.9169 23.0557C79.8522 23.4368 79.5156 23.3775 79.2307 23.4198C79.1272 23.4198 78.933 23.3436 78.9394 23.5045C78.9459 23.6654 79.4508 23.5045 79.1789 23.8264C78.9905 23.9389 78.7836 23.9884 78.577 23.9703H77.2823C77.9102 23.9873 77.9296 23.3097 78.3957 23.1573Z" fill="#ED5C01"/>
<path d="M128.478 30.0935C129.125 30.8219 130.103 31.2199 130.342 32.3548C129.177 32.0584 129.132 30.8134 128.478 30.0935Z" fill="#ED5C01"/>
<path d="M99.5886 5.93091C100.598 6.31202 101.699 6.46447 102.579 7.26904C101.472 7.1166 100.637 6.27815 99.5886 5.93091Z" fill="#ED5C01"/>
<path d="M36.075 31.5334L37.9393 30.9575C37.3451 31.2773 36.7158 31.4717 36.075 31.5334Z" fill="#ED5C01"/>
<path d="M38.7871 30.7117L38.0944 30.9065L37.9391 30.9573C38.2144 30.8366 38.4986 30.7543 38.7871 30.7117Z" fill="#ED5C01"/>
<path d="M63.7993 24.4275C64.233 24.4275 64.7444 24.2581 65.1392 24.7663L63.8964 25.1135C63.7087 25.1643 63.5727 25.1135 63.5404 24.8933C63.508 24.6731 63.5145 24.436 63.7993 24.4275Z" fill="#ED5C01"/>
<path d="M56.9441 2.00118C57.691 1.63178 58.4924 1.48986 59.2874 1.58618C58.5659 2.07242 57.7385 2.21896 56.9441 2.00118Z" fill="#ED5C01"/>
<path d="M27.2513 25.3083C26.4759 25.9339 25.5713 26.2298 24.6621 26.1553C25.4726 25.6471 26.3534 25.359 27.2513 25.3083Z" fill="#ED5C01"/>
<path d="M86.4547 19.8881C86.7839 19.6868 87.1521 19.6212 87.5104 19.6998C87.8688 19.7785 88.2004 19.9977 88.4614 20.3285C87.7493 20.1252 87.0502 20.3708 86.4547 19.8881Z" fill="#ED5C01"/>
<path d="M93.3615 23.4877C92.7067 23.6466 92.0306 23.5464 91.4196 23.1997C92.0604 23.3776 92.7142 23.0049 93.3615 23.4877Z" fill="#ED5C01"/>
<path d="M79.9169 23.0631V23.0557L79.9372 23.0631H79.9169Z" fill="#ED5C01"/>
<path d="M82.8689 23.513C81.88 23.5392 80.8931 23.3852 79.9366 23.0557C80.9075 23.2674 81.9238 22.8778 82.8689 23.513Z" fill="#ED5C01"/>
<path d="M50.3801 3.41559L49.0855 3.6612C49.379 3.2577 49.7502 2.96514 50.16 2.81428C50.2592 2.7643 50.3687 2.76152 50.4692 2.80642C50.5698 2.85131 50.6551 2.94103 50.7103 3.05989C50.7685 3.22927 50.5614 3.37325 50.3801 3.41559Z" fill="#ED5C01"/>
<path d="M79.3343 1.1712C78.687 1.01028 77.8714 1.24742 77.0428 0.60376C78.0009 0.688452 78.7323 0.6207 79.3343 1.1712Z" fill="#ED5C01"/>
<path d="M82.422 1.25586C83.1081 1.29821 83.5742 1.12882 83.9043 1.59463C83.982 1.70473 83.9949 1.88258 83.8396 1.89952C83.5821 1.92764 83.3228 1.88489 83.0787 1.77403C82.8345 1.66318 82.6108 1.48666 82.422 1.25586Z" fill="#ED5C01"/>
<path d="M92.7859 4.09319C92.2098 4.16941 92.1385 3.73748 91.7178 3.3479C92.3651 3.3479 92.8312 3.3479 93.0642 3.76289C93.1483 3.92381 92.9283 4.07625 92.7859 4.09319Z" fill="#ED5C01"/>
<path d="M13.6772 20.4217C14.0425 19.8879 14.5545 19.5651 15.1013 19.5239C14.7139 20.0179 14.2139 20.3331 13.6772 20.4217Z" fill="#ED5C01"/>
<path d="M75.3271 23.3351C75.4565 23.3859 75.4954 23.4622 75.4436 23.6061C75.3884 23.7908 75.2808 23.9405 75.1434 24.0241C75.006 24.1077 74.8492 24.1188 74.7057 24.055L74.3238 23.9534C74.4985 23.8433 74.6021 23.8094 74.6215 23.7501C74.6459 23.6612 74.6838 23.5796 74.7328 23.5103C74.7818 23.4409 74.841 23.3852 74.9069 23.3465C74.9728 23.3077 75.0439 23.2868 75.1161 23.2848C75.1883 23.2829 75.2601 23.3 75.3271 23.3351Z" fill="#ED5C01"/>
<path d="M57.3254 30.4324C56.8792 30.5777 56.4179 30.6263 55.9596 30.5764C56.3933 30.534 56.7623 30.0851 57.3254 30.4324Z" fill="#ED5C01"/>
<path d="M69.8642 26.7228L71.0228 26.6296C70.8486 26.7621 70.6531 26.8395 70.4519 26.8557C70.2508 26.8718 70.0495 26.8263 69.8642 26.7228Z" fill="#ED5C01"/>
<path d="M44.6964 29.1197C44.1656 29.3908 43.7384 29.4331 43.3565 29.6194C43.7405 29.2417 44.2179 29.0637 44.6964 29.1197Z" fill="#ED5C01"/>
<path d="M137.017 38.749C137.366 39.1047 137.845 39.2995 138 39.9262C137.528 39.6722 137.321 39.1386 137.017 38.749Z" fill="#ED5C01"/>
<path d="M66.9577 28.6707C66.7431 28.8245 66.5073 28.921 66.2639 28.9544C66.0205 28.9879 65.7745 28.9576 65.5401 28.8655C65.9854 28.6078 66.4813 28.5397 66.9577 28.6707Z" fill="#ED5C01"/>
<path d="M21.2836 17.1949C21.1461 17.25 21.0054 17.2896 20.8628 17.3135C20.8952 17.2457 20.9017 17.1864 20.934 17.178C21.1949 17.014 21.4655 16.878 21.7432 16.7714C21.9115 16.7206 21.8856 16.619 21.8532 16.7714C21.8208 16.9239 21.4972 17.0848 21.2836 17.1949Z" fill="#ED5C01"/>
<path d="M90.6229 3.41555C90.5442 3.40775 90.4703 3.36331 90.4145 3.29028C90.3586 3.21726 90.3247 3.12048 90.3187 3.0175C90.3187 2.87353 90.4352 2.81424 90.61 2.83118C90.7848 2.84812 91.0243 3.00056 91.0178 3.17842C91.0113 3.35627 90.8171 3.48331 90.6229 3.41555Z" fill="#ED5C01"/>
<path d="M97.3818 5.25322C97.1423 5.32097 97.0452 5.14312 96.9092 5.04149C96.7733 4.93986 96.8704 4.86364 97.0128 4.90598C97.2352 4.94037 97.453 5.01446 97.6601 5.12618C97.7637 5.17699 97.5048 5.21934 97.3818 5.25322Z" fill="#ED5C01"/>
<path d="M28.2352 16.5598C28.0396 16.7083 27.812 16.7679 27.5879 16.7292C27.7694 16.5298 27.9982 16.419 28.2352 16.4158C28.3517 16.4074 28.3582 16.5005 28.2352 16.5598Z" fill="#ED5C01"/>
<path d="M81.5089 26.257C81.4018 26.324 81.2846 26.3587 81.1659 26.3587C81.0472 26.3587 80.9299 26.324 80.8228 26.257C80.7322 26.1977 80.7386 26.1385 80.8552 26.113C80.9628 26.0496 81.0824 26.0294 81.1988 26.055C81.3152 26.0806 81.4231 26.1509 81.5089 26.257Z" fill="#ED5C01"/>
<path d="M59.3715 29.9495L58.6272 30.0427C58.7286 29.9283 58.8547 29.8579 58.988 29.8413C59.1214 29.8246 59.2553 29.8624 59.3715 29.9495Z" fill="#ED5C01"/>
<path d="M48.8719 32.3634C48.8719 32.4057 48.7424 32.4481 48.6583 32.4904C48.5741 32.5328 48.3476 32.4904 48.3346 32.2618C48.4027 32.2107 48.4773 32.1763 48.5547 32.1601C48.723 32.1347 48.9107 32.1432 48.8719 32.3634Z" fill="#ED5C01"/>
<path d="M62.8279 27.8493C62.7002 27.9555 62.552 28.012 62.4007 28.012C62.2494 28.012 62.1011 27.9555 61.9734 27.8493C62.2453 27.7815 62.5366 27.5529 62.8279 27.8493Z" fill="#ED5C01"/>
<path d="M21.769 15.8398C21.8231 15.7462 21.8914 15.6683 21.9697 15.6111C22.1574 15.501 22.5199 15.23 22.494 15.5095C22.4681 15.7889 22.0603 15.8652 21.769 15.8398Z" fill="#ED5C01"/>
<path d="M103.88 7.83635C103.913 7.70084 104.094 7.83635 104.23 7.83635C104.366 7.83635 104.534 7.96339 104.398 8.0989C104.323 8.13675 104.24 8.13675 104.165 8.0989C104.049 8.04808 103.867 7.89563 103.88 7.83635Z" fill="#ED5C01"/>
</g>
<defs>
<clipPath id="clip0_1_681">
<rect width="138" height="43.3962" fill="white" transform="translate(0 0.60376)"/>
</clipPath>
</defs>
</svg>
