<svg width="27" height="16" viewBox="0 0 27 16" fill="none" xmlns="http://www.w3.org/2000/svg">
<path d="M25.0449 9.0022C25.5972 9.0022 26.0449 8.55448 26.0449 8.0022C26.0449 7.44991 25.5972 7.0022 25.0449 7.0022L25.0449 9.0022ZM0.296184 7.29509C-0.0943394 7.68562 -0.0943393 8.31878 0.296185 8.70931L6.66015 15.0733C7.05067 15.4638 7.68384 15.4638 8.07436 15.0733C8.46488 14.6827 8.46488 14.0496 8.07436 13.6591L2.41751 8.0022L8.07436 2.34534C8.46488 1.95482 8.46488 1.32166 8.07436 0.931131C7.68384 0.540607 7.05067 0.540607 6.66015 0.931131L0.296184 7.29509ZM25.0449 7.0022L1.00329 7.0022L1.00329 9.0022L25.0449 9.0022L25.0449 7.0022Z" fill="white"/>
</svg>
