<svg width="27" height="16" viewBox="0 0 27 16" fill="none" xmlns="http://www.w3.org/2000/svg">
<path d="M1.00293 7.0022C0.450645 7.0022 0.00292969 7.44991 0.00292969 8.0022C0.00292969 8.55448 0.450645 9.0022 1.00293 9.0022V7.0022ZM25.7517 8.7093C26.1422 8.31878 26.1422 7.68561 25.7517 7.29509L19.3877 0.931129C18.9972 0.540605 18.364 0.540605 17.9735 0.931129C17.583 1.32165 17.583 1.95482 17.9735 2.34534L23.6303 8.0022L17.9735 13.6591C17.583 14.0496 17.583 14.6827 17.9735 15.0733C18.364 15.4638 18.9972 15.4638 19.3877 15.0733L25.7517 8.7093ZM1.00293 9.0022H25.0446V7.0022H1.00293V9.0022Z" fill="white"/>
</svg>
