<svg width="142" height="144" viewBox="0 0 142 144" fill="none" xmlns="http://www.w3.org/2000/svg">
<g clip-path="url(#clip0_1_823)">
<path d="M49.4081 101.077C47.7126 105.577 49.069 108 52.1208 110.423C55.8507 113.885 59.2416 116.308 65.3453 115.269C72.8052 114.231 79.9261 123.577 76.1961 129.808C73.4834 134.308 69.4143 138.808 65.3453 142.269C59.5807 147.115 49.7471 141.231 50.0862 133.269C50.0862 127.385 47.7126 124.269 43.6435 120.808C36.5226 114.577 29.4018 108.346 22.62 101.769C20.5854 99.6923 18.5509 99 15.4991 99.6923C9.0564 100.731 4.64823 98.6538 2.27461 93.4615C-0.0990196 88.6153 1.59643 83.423 6.00459 81C7.02186 80.3076 8.37822 79.6153 8.71731 78.5769C9.73458 74.0769 12.4473 71.6538 17.1945 71.6538C21.6027 71.6538 26.35 74.7692 27.7063 78.923C28.0454 79.9615 28.3845 81 28.3845 82.0384C26.6891 90 32.7927 93.1153 37.5399 96.923C38.8963 97.9615 41.609 97.2692 44.6608 97.2692C40.9308 93.4615 40.2526 90.6923 42.9653 87.2307C43.6435 86.5384 42.6263 84.1153 41.609 82.7307C35.5054 74.423 29.0627 66.1153 23.2982 57.8077C21.2636 54.6923 19.9073 50.8846 18.5509 47.0769C15.16 37.7307 15.8382 29.423 23.2982 22.1538C28.0454 17.6538 32.1145 12.8076 35.8445 7.61534C40.9308 0.692264 47.3735 -1.0385 55.1726 -4.31538e-05C65.6843 1.38457 75.5179 5.88457 84.3343 11.423C105.358 24.923 123.33 41.5384 135.876 63.6923C137.232 66.4615 138.589 69.2307 139.606 72.3461C143.336 82.3846 143.336 91.3846 134.859 99.3461C130.111 103.846 126.042 109.385 121.634 114.577C117.904 119.423 112.818 121.154 107.392 120.808C95.1851 120.462 84.6734 115.269 74.5007 109.038C70.4316 106.615 66.3625 103.5 62.2935 101.077C61.2762 100.385 58.9026 100.038 58.2244 100.731C55.5117 104.192 52.7989 103.846 49.4081 101.077ZM104.68 68.5384C105.019 68.1923 105.358 68.1923 105.697 67.8461C106.375 68.5384 107.392 69.2307 108.071 70.2692C112.818 78.5769 117.565 87.2307 122.312 95.5384C122.99 96.5769 123.669 97.9615 124.686 98.3076C132.485 100.385 140.284 94.1538 139.945 85.8461C139.606 81 138.589 75.8076 136.554 70.9615C130.79 56.423 120.956 44.6538 109.766 33.923C95.8633 20.7692 80.6043 9.69227 61.9544 4.1538C57.5462 2.76919 52.4599 2.42303 47.7126 2.76919C39.5745 3.4615 34.4881 11.423 37.2008 19.3846C37.5399 20.423 38.8963 21.4615 39.9135 21.8077C65.3453 28.0384 85.0125 44.3076 102.306 63.3461C102.984 64.0384 102.984 64.7307 103.662 65.7692C84.6734 46.7307 65.0062 29.7692 38.2181 23.1923C44.6608 52.6153 93.8288 95.5384 120.617 96.923C117.904 86.1923 110.783 77.5384 104.68 68.5384ZM34.149 12.8076C30.419 16.9615 27.3672 20.7692 23.9763 24.2307C18.5509 29.7692 17.5336 36.3461 19.9073 43.6153C21.6027 48.4615 23.2982 53.3077 25.6718 57.4615C35.1663 74.7692 48.7299 88.2692 63.9889 100.038C74.5007 108 85.6906 114.577 98.576 117.692C112.818 121.5 125.025 114.577 129.772 101.423C122.312 99.6923 114.174 98.3077 106.714 95.5384C90.0988 89.3077 75.857 78.5769 63.3107 65.7692C49.4081 51.2307 36.1836 35.6538 34.149 12.8076ZM10.4128 82.0384C4.64823 83.423 2.6137 85.1538 2.95279 89.3076C3.29188 93.4615 6.34368 97.2692 10.7518 97.9615C12.1082 98.3076 13.4646 98.3076 14.8209 97.9615C18.5509 96.923 21.6027 98.3077 24.6545 101.077C31.7754 107.654 38.5572 113.885 45.6781 120.115C49.7471 123.577 52.1208 127.038 51.7817 132.577C51.4426 137.769 55.8508 141.577 60.598 141.923C64.6671 141.923 66.7016 139.5 67.3798 133.269C71.4489 132.577 74.8398 131.192 74.8398 126.346C74.8398 122.192 71.4489 118.038 67.3798 117.692C66.0234 117.346 64.328 117.346 62.9716 117.692C59.2416 118.731 56.5289 117.346 53.8162 114.923C47.3735 108.692 40.5917 102.808 33.8099 96.923C29.0627 93.1153 25.3327 89.3077 26.0109 82.0384C26.35 77.5384 21.6027 73.7307 17.1945 73.7307C12.7864 73.7307 11.0909 76.1538 10.4128 82.0384ZM46.0172 87.5769C42.2872 91.0384 42.6263 93.1153 46.3562 95.1923C47.7126 95.8846 49.069 96.923 49.7471 98.3076C52.4599 102.115 54.8335 102.115 56.868 97.6153C53.4771 94.5 50.0862 91.0384 46.0172 87.5769Z" fill="white"/>
<path d="M64.6669 77.1922C66.7014 79.9615 67.3796 82.3845 65.006 85.1538C62.6323 87.923 59.9196 87.923 57.2069 85.8461C54.4942 83.7692 54.4942 79.9615 56.8678 77.5384C59.2414 75.1153 61.9542 75.4615 64.6669 77.1922ZM64.6669 84.8076C63.9887 82.0384 63.9887 79.6153 62.9714 78.923C61.9542 78.2307 58.9024 78.2307 58.2242 79.2692C57.546 80.3076 57.546 83.0768 58.2242 84.1153C59.2414 85.1538 61.6151 84.8076 64.6669 84.8076Z" fill="white"/>
<path d="M36.8616 63.346C34.4879 60.923 34.4879 57.8076 36.5225 55.3845C38.8961 52.9614 41.6088 52.6153 44.3215 55.0384C46.6951 57.1153 47.0342 61.2691 44.9997 63.346C42.287 65.423 39.5743 65.7691 36.8616 63.346ZM43.9824 55.3845C41.2697 56.0768 38.8961 55.7307 38.2179 57.1153C37.5397 58.1537 37.5397 61.2691 38.557 61.9614C39.5743 62.6537 42.287 62.6537 43.3043 61.6153C43.9824 60.5768 43.6433 58.4999 43.9824 55.3845Z" fill="white"/>
<path d="M81.2827 104.192C79.2482 101.769 78.9091 98.9999 81.2827 96.5768C83.6563 94.1537 86.7081 93.8075 89.0818 96.2306C91.4554 98.3075 91.7945 101.423 89.7599 104.192C87.7254 106.269 83.6563 106.615 81.2827 104.192ZM81.6218 103.846C84.3345 103.154 86.7081 103.5 87.7254 102.461C88.4036 101.423 87.7254 98.9999 87.7254 97.2691C86.0299 97.2691 83.6563 96.5768 82.6391 97.6152C81.9609 98.6537 82.3 101.077 81.6218 103.846Z" fill="white"/>
</g>
<defs>
<clipPath id="clip0_1_823">
<rect width="141.061" height="144" fill="white" transform="translate(0.918335)"/>
</clipPath>
</defs>
</svg>
