<svg width="112" height="111" viewBox="0 0 112 111" fill="none" xmlns="http://www.w3.org/2000/svg">
<circle cx="55.503" cy="55.501" r="55.5" fill="#EBE3CC"/>
<g clip-path="url(#clip0_1_769)">
<path fill-rule="evenodd" clip-rule="evenodd" d="M67.3523 63.1446C71.6663 62.5811 75.7505 60.3016 79.4774 56.3189C79.7426 56.0547 79.942 55.7315 80.0595 55.3755C80.177 55.0195 80.2093 54.6408 80.1539 54.27C85.0358 48.3536 87.9841 40.1513 87.9841 33.8955C87.9841 24.2141 83.3319 23.1896 75.7314 21.5952H75.6165C75.3915 21.1214 75.0382 20.7207 74.597 20.4387C74.1557 20.1568 73.6444 20.0051 73.1213 20.0009C72.7391 19.9853 72.3577 20.0476 72.0002 20.1839C71.6426 20.3201 71.3163 20.5277 71.0408 20.7939C70.7653 21.0601 70.5464 21.3796 70.3972 21.733C70.2481 22.0864 70.1718 22.4665 70.173 22.8502C70.173 24.3293 71.4174 25.4691 73.1213 25.4691C73.7336 25.4562 74.3276 25.2575 74.8252 24.8992C82.3108 26.4936 84.3593 26.9482 84.3593 33.8955C84.3593 39.3573 81.5131 46.7592 77.3396 52.1058C76.9728 52.1026 76.61 52.1827 76.2785 52.3402C75.9469 52.4977 75.6552 52.7283 75.4251 53.015C73.1532 55.2945 69.7518 58.1374 65.5527 58.1374C61.4685 58.1374 57.9522 55.2945 55.7952 53.015C55.2822 52.4972 54.605 52.1756 53.8807 52.1058C49.6816 46.7592 46.8609 39.3573 46.8609 33.8955C46.8609 26.9482 48.7754 26.4936 56.2802 24.8992C56.8204 25.2582 57.4512 25.4558 58.099 25.4691C58.8343 25.5094 59.5558 25.257 60.1066 24.7666C60.6575 24.2762 60.9932 23.5876 61.0409 22.8502C61.0241 22.082 60.7056 21.3515 60.1546 20.8179C59.6035 20.2842 58.8647 19.9906 58.099 20.0009C57.5601 20.005 57.0323 20.1554 56.5717 20.4361C56.111 20.7168 55.7347 21.1173 55.4825 21.5952C47.7735 23.1896 43.1213 24.2141 43.1213 33.8955C43.1213 40.1513 46.1845 48.3536 51.06 54.3852C51.0221 54.7277 51.0534 55.0744 51.152 55.4044C51.2507 55.7345 51.4148 56.0412 51.6344 56.3061C55.374 60.2888 59.3434 62.5641 63.5425 63.1318L63.4276 75.2976C63.4276 83.724 56.1653 90.556 47.2055 90.556C38.2457 90.556 30.8686 83.724 30.8686 75.2976V64.6237C36.0888 63.8297 40.0581 59.6229 40.0581 54.4941C40.0581 48.917 35.0677 44.2492 29.0498 44.2492C23.032 44.2492 18.0479 48.9106 18.0479 54.4941C18.0479 59.6165 22.0173 63.8297 27.2374 64.6237V75.3296C27.2374 85.6897 36.1717 94.0009 47.2055 94.0009C58.2394 94.0009 67.1736 85.6769 67.1736 75.3296V63.1638L67.3523 63.1446Z" fill="#062D3E"/>
<path fill-rule="evenodd" clip-rule="evenodd" d="M29.0045 61.4414C30.8852 61.4844 32.706 60.7771 34.0675 59.4746C35.429 58.1722 36.22 56.381 36.2668 54.4941C36.2668 50.7419 32.9739 47.6685 29.0045 47.6685C24.9203 47.6685 21.7422 50.7419 21.7422 54.4941C21.7422 58.3679 24.9331 61.4414 29.0045 61.4414Z" fill="#FBBD08"/>
</g>
<defs>
<clipPath id="clip0_1_769">
<rect width="70" height="74" fill="white" transform="translate(18.003 20.001)"/>
</clipPath>
</defs>
</svg>
