<svg width="112" height="111" viewBox="0 0 112 111" fill="none" xmlns="http://www.w3.org/2000/svg">
<circle cx="55.5029" cy="55.5009" r="55.5" fill="#FBBD08"/>
<g clip-path="url(#clip0_213_2)">
<path d="M32 79.375H36V83.1875C36 84.1986 36.4214 85.1684 37.1716 85.8833C37.9217 86.5983 38.9391 87 40 87H80C81.0609 87 82.0783 86.5983 82.8284 85.8833C83.5786 85.1684 84 84.1986 84 83.1875V37.4375C84 36.4264 83.5786 35.4566 82.8284 34.7417C82.0783 34.0267 81.0609 33.625 80 33.625H76V29.8125C76 28.8014 75.5786 27.8316 74.8284 27.1167C74.0783 26.4017 73.0609 26 72 26H32C30.9391 26 29.9217 26.4017 29.1716 27.1167C28.4214 27.8316 28 28.8014 28 29.8125V75.5625C28 76.5736 28.4214 77.5434 29.1716 78.2583C29.9217 78.9733 30.9391 79.375 32 79.375ZM72 75.5625H32V29.8125H72V75.5625ZM80 37.4375V83.1875H40V79.375H72C73.0609 79.375 74.0783 78.9733 74.8284 78.2583C75.5786 77.5434 76 76.5736 76 75.5625V37.4375H80ZM44 39.3438C44 39.8493 44.2107 40.3342 44.5858 40.6917C44.9609 41.0492 45.4696 41.25 46 41.25H66C66.5304 41.25 67.0391 41.0492 67.4142 40.6917C67.7893 40.3342 68 39.8493 68 39.3438C68 38.8382 67.7893 38.3533 67.4142 37.9958C67.0391 37.6383 66.5304 37.4375 66 37.4375H46C45.4696 37.4375 44.9609 37.6383 44.5858 37.9958C44.2107 38.3533 44 38.8382 44 39.3438ZM38 52.6875H66C66.5304 52.6875 67.0391 52.4867 67.4142 52.1292C67.7893 51.7717 68 51.2868 68 50.7812C68 50.2757 67.7893 49.7908 67.4142 49.4333C67.0391 49.0758 66.5304 48.875 66 48.875H38C37.4696 48.875 36.9609 49.0758 36.5858 49.4333C36.2107 49.7908 36 50.2757 36 50.7812C36 51.2868 36.2107 51.7717 36.5858 52.1292C36.9609 52.4867 37.4696 52.6875 38 52.6875ZM38 60.3125H66C66.5304 60.3125 67.0391 60.1117 67.4142 59.7542C67.7893 59.3967 68 58.9118 68 58.4062C68 57.9007 67.7893 57.4158 67.4142 57.0583C67.0391 56.7008 66.5304 56.5 66 56.5H38C37.4696 56.5 36.9609 56.7008 36.5858 57.0583C36.2107 57.4158 36 57.9007 36 58.4062C36 58.9118 36.2107 59.3967 36.5858 59.7542C36.9609 60.1117 37.4696 60.3125 38 60.3125ZM38 67.9375H66C66.5304 67.9375 67.0391 67.7367 67.4142 67.3792C67.7893 67.0217 68 66.5368 68 66.0312C68 65.5257 67.7893 65.0408 67.4142 64.6833C67.0391 64.3258 66.5304 64.125 66 64.125H38C37.4696 64.125 36.9609 64.3258 36.5858 64.6833C36.2107 65.0408 36 65.5257 36 66.0312C36 66.5368 36.2107 67.0217 36.5858 67.3792C36.9609 67.7367 37.4696 67.9375 38 67.9375Z" fill="black"/>
</g>
<defs>
<clipPath id="clip0_213_2">
<rect width="56" height="61" fill="white" transform="translate(28.0029 25.0009)"/>
</clipPath>
</defs>
</svg>
