<svg width="213" height="209" viewBox="0 0 213 209" fill="none" xmlns="http://www.w3.org/2000/svg">
<path d="M108.183 149.919C107.882 149.137 107.279 148.467 106.376 148.132C106.225 148.021 105.924 148.021 105.773 147.909C104.719 147.462 104.568 147.462 103.363 147.351C103.213 147.351 103.062 147.351 102.912 147.351C102.46 147.351 102.008 147.239 101.556 147.351C100.803 147.462 100.201 147.574 99.4476 147.797C99.297 147.797 99.1464 147.909 98.9958 147.909C98.5439 148.132 97.9415 148.244 97.3391 148.467C97.0379 148.579 96.7366 148.579 96.4354 148.691C95.9836 148.802 95.6824 149.026 95.3812 149.249C95.2306 149.361 95.08 149.584 94.9294 149.696C94.7787 149.808 94.7787 149.808 94.6281 149.919C94.1763 150.254 93.7245 150.701 93.5739 151.148C93.5739 151.259 93.4233 151.259 93.4233 151.371C93.1221 151.706 92.8208 152.153 92.9715 152.6C93.1221 153.046 93.5739 153.381 94.0257 153.493L94.1763 153.605C94.7787 154.052 95.5318 154.275 96.2848 154.387C96.586 154.498 96.7366 154.61 97.0379 154.61C97.4897 154.722 97.9415 154.722 98.3933 154.722C98.6945 154.722 98.9958 154.722 99.297 154.722C99.8994 154.722 100.502 154.722 101.104 154.722C101.707 154.722 102.46 154.722 103.062 154.61C103.815 154.498 104.418 154.275 104.869 153.94C105.02 153.828 105.171 153.828 105.321 153.717C105.622 153.493 105.924 153.381 106.376 153.158C106.677 152.935 106.978 152.711 107.279 152.376C107.43 152.265 107.58 152.153 107.731 151.93C108.333 151.595 108.484 150.589 108.183 149.919Z" fill="#FBBD08"/>
<path d="M80.4704 159.412C80.1691 158.966 79.7173 158.63 79.1149 158.519C78.9643 158.519 78.8137 158.407 78.6631 158.407C78.2113 158.295 77.7594 158.295 77.3076 158.407C77.157 158.407 77.157 158.407 77.0064 158.519C76.404 158.63 75.8015 158.742 75.3497 158.966C75.1991 159.077 75.0485 159.077 74.8979 159.189C74.5967 159.301 74.2955 159.524 73.9942 159.636L73.5424 159.859C73.0906 160.082 72.7894 160.417 72.7894 160.864C72.3376 161.311 72.7894 161.981 73.3918 162.093C73.5424 162.204 73.8436 162.316 74.1449 162.428C74.4461 162.539 74.5967 162.428 74.8979 162.428C75.0485 162.428 75.1991 162.428 75.5003 162.428C76.1027 162.428 76.7052 162.316 77.3076 162.316C77.7594 162.204 78.0606 162.204 78.3619 162.093C78.5125 161.981 78.6631 161.981 78.9643 161.869C79.1149 161.869 79.1149 161.869 79.2655 161.758C79.7173 161.534 80.0185 161.311 80.3198 160.976C80.4704 160.864 80.4704 160.752 80.621 160.641C80.7716 160.306 80.7716 159.747 80.4704 159.412Z" fill="#FBBD08"/>
<path d="M88.1516 172.479C88.1516 172.144 88.001 171.698 87.8504 171.363C87.3986 170.692 86.3443 170.134 85.2901 170.246C84.5371 170.246 83.784 170.357 82.8804 170.357C82.4286 170.357 81.9767 170.357 81.6755 170.357C80.9225 170.357 80.4707 170.469 79.7176 170.581C79.1152 170.692 78.5128 170.804 77.9103 171.028C77.4585 171.139 77.1573 171.363 76.8561 171.474C76.4043 171.698 76.103 171.921 75.8018 171.921C75.35 172.033 75.0488 172.144 74.597 172.256C73.9945 172.479 73.3921 172.926 73.2415 173.485C73.2415 173.708 73.0909 173.931 73.0909 174.155C72.9403 174.266 72.9403 174.49 73.0909 174.49C73.2415 174.713 73.3921 174.936 73.5427 175.16C73.9945 175.718 74.7476 175.942 75.6512 176.053C76.103 176.053 76.5549 176.053 77.0067 176.165C77.7597 176.277 78.5128 176.388 79.1152 176.388C80.0188 176.388 81.0731 176.277 81.9767 176.053C82.8804 175.942 83.784 175.495 84.5371 175.16C85.1395 174.936 85.7419 174.713 86.3443 174.378C87.3986 173.931 88.3022 173.261 88.1516 172.479Z" fill="#FBBD08"/>
<path d="M97.0379 162.205C97.0379 161.981 97.1885 161.87 97.1885 161.646C97.1885 161.423 97.0379 161.088 96.7367 160.864C96.4355 160.641 96.1343 160.529 95.6824 160.529C95.5318 160.529 95.3812 160.529 95.2306 160.529C95.08 160.529 94.7788 160.529 94.6282 160.529C94.4776 160.529 94.1764 160.641 94.0258 160.753C94.1764 160.753 94.327 160.641 94.4776 160.641C94.4776 160.753 94.327 160.753 94.1764 160.753C94.0258 160.753 94.0258 160.753 93.8751 160.753C93.5739 160.753 93.4233 160.864 93.1221 160.976L93.5739 160.864C93.2727 160.976 92.8209 160.976 92.5197 161.088C92.2185 161.199 91.9173 161.311 91.616 161.423C91.4654 161.423 91.4654 161.423 91.3148 161.534C91.0136 161.646 90.7124 161.87 90.5618 162.093C90.4112 162.093 90.2606 162.205 90.2606 162.316H90.11C89.8087 162.316 89.6581 162.651 89.8087 162.763L89.9594 162.875C89.9594 162.986 90.11 163.21 90.4112 163.321L90.5618 163.433C90.863 163.768 91.1642 164.103 91.7666 164.215C91.9173 164.215 92.0679 164.215 92.2185 164.327C92.5197 164.327 92.6703 164.438 92.9715 164.438C93.2727 164.438 93.4233 164.438 93.7245 164.327C94.1764 164.215 94.7788 164.103 95.2306 163.88C95.5318 163.768 95.833 163.545 95.9837 163.433C96.1343 163.321 96.2849 163.21 96.4355 163.21C96.7367 162.763 96.8873 162.54 97.0379 162.205Z" fill="#FBBD08"/>
<path d="M117.068 168.794C116.616 167.789 115.11 167.007 113.604 167.007C112.249 167.007 110.893 167.23 109.538 167.454C108.032 167.677 106.224 168.459 105.02 169.241C104.869 169.241 104.869 169.352 104.718 169.352C104.116 169.687 103.815 169.799 103.363 170.246C103.363 170.246 103.363 170.246 103.363 170.357C103.212 170.469 102.911 170.581 102.761 170.693C102.007 171.139 101.706 171.698 101.706 172.256C101.556 172.479 101.556 172.591 101.556 172.815C101.556 173.038 101.556 173.485 101.706 173.596C102.007 173.82 102.309 174.043 102.761 174.155C103.363 174.601 104.267 174.825 105.02 174.713H105.622C106.676 174.825 107.731 174.601 108.785 174.49C108.484 174.49 108.032 174.601 107.731 174.601C108.634 174.601 109.387 174.49 110.14 174.266C111.044 174.043 111.948 173.931 112.701 173.485C113.152 173.261 113.604 173.038 114.056 172.815C114.809 172.479 115.562 172.144 116.014 171.698C117.219 171.028 117.52 169.911 117.068 168.794Z" fill="#FBBD08"/>
<path d="M119.78 157.402C120.081 156.844 119.629 156.285 119.027 155.95C118.424 155.727 117.972 155.615 117.37 155.615C116.767 155.392 116.014 155.28 115.261 155.392C115.111 155.392 114.81 155.503 114.659 155.503C114.056 155.615 113.454 155.727 112.852 156.062C112.55 156.285 112.099 156.397 111.797 156.62C111.496 156.844 111.044 156.955 110.894 157.179C110.743 157.29 110.593 157.402 110.442 157.514C110.141 157.737 109.839 157.96 109.689 158.295V158.407C109.538 158.519 109.538 158.631 109.388 158.854C109.237 158.966 109.237 159.077 109.086 159.189C108.936 159.301 108.785 159.412 108.785 159.524C108.635 159.636 108.484 159.747 108.333 159.747C108.183 159.859 108.333 160.082 108.484 160.082C108.635 160.082 108.936 159.971 109.086 160.082C109.237 160.082 109.388 160.082 109.538 160.082C109.689 160.082 109.839 160.194 109.99 160.194C110.141 160.306 110.291 160.306 110.593 160.417C110.593 160.417 110.743 160.417 110.743 160.529C111.195 160.641 111.647 160.641 111.948 160.641C112.099 160.641 112.4 160.753 112.55 160.753C113.002 160.753 113.303 160.753 113.755 160.641L114.96 160.529C115.563 160.417 116.165 160.306 116.767 160.082C116.918 159.971 117.219 159.971 117.37 159.859C118.123 159.524 118.575 159.189 118.725 158.631C119.328 158.184 119.629 157.849 119.78 157.402Z" fill="#FBBD08"/>
<path d="M133.936 148.691C134.388 148.132 134.538 147.574 134.388 147.015C134.388 146.569 134.086 146.122 133.785 145.787C133.183 145.117 132.58 144.782 131.827 144.67C131.526 144.558 131.376 144.447 131.074 144.335C130.773 144.223 130.321 144.112 129.869 144.112C129.418 144 129.116 144 128.665 144C128.363 144 128.062 144 127.912 144.112C127.159 144.223 126.556 144.335 125.803 144.558C125.502 144.67 125.201 144.782 124.899 144.893C124.749 144.893 124.598 145.005 124.448 145.005C124.146 145.117 123.996 145.229 123.695 145.34C123.695 145.34 123.544 145.34 123.544 145.452C123.243 145.564 123.092 145.675 122.791 145.899C122.791 146.01 122.64 146.01 122.64 146.122C122.339 146.234 122.188 146.457 121.887 146.569C121.737 146.792 121.586 146.904 121.435 147.127C121.134 147.462 120.833 147.797 120.984 148.244C120.984 148.691 121.435 149.137 121.887 149.361C122.038 149.473 122.188 149.584 122.188 149.584C122.49 149.808 122.942 149.919 123.393 150.031C123.695 150.143 123.996 150.254 124.297 150.366C124.448 150.366 124.598 150.366 124.598 150.478C125.05 150.589 125.201 150.589 125.803 150.701C126.104 150.701 126.405 150.813 126.857 150.813C127.159 150.813 127.61 150.924 127.912 150.924C128.213 150.924 128.665 150.924 128.966 150.813C129.418 150.813 129.869 150.813 130.321 150.701C130.622 150.589 131.074 150.478 131.376 150.366C131.677 150.143 131.978 150.031 132.279 149.808L132.731 149.361C133.183 149.249 133.635 149.026 133.936 148.691Z" fill="#FBBD08"/>
<path d="M149.599 158.407C149.298 157.737 148.545 157.29 147.642 157.067C146.889 156.844 145.985 156.844 145.232 156.844C144.629 156.844 144.027 156.844 143.425 156.955C143.123 157.067 142.822 157.067 142.521 157.179C142.22 157.29 141.918 157.29 141.617 157.402C141.316 157.514 141.015 157.514 140.714 157.626C140.111 157.849 139.659 157.961 139.208 158.296C139.057 158.407 138.756 158.519 138.605 158.631C138.304 158.854 138.003 159.077 137.852 159.301C137.852 159.301 137.852 159.412 137.701 159.412C137.25 159.859 136.798 160.306 136.798 160.864C136.798 160.976 136.798 160.976 136.798 161.088C136.647 161.423 136.798 161.758 137.099 161.87C137.551 162.316 138.003 162.651 138.756 162.763C138.906 162.763 139.057 162.763 139.208 162.875C139.659 162.986 140.262 163.098 140.864 163.098C141.165 163.098 141.467 163.098 141.768 163.098H141.467C142.069 163.098 142.521 163.098 143.123 162.986C143.425 162.986 143.575 162.875 143.876 162.763C144.328 162.651 144.78 162.54 145.232 162.428C146.135 162.205 146.738 161.981 147.34 161.534C147.491 161.423 147.642 161.311 147.792 161.199C148.244 160.864 148.846 160.529 149.148 160.083C149.901 159.748 149.901 159.077 149.599 158.407Z" fill="#FBBD08"/>
<path d="M63.4521 172.368C63.4521 172.256 63.6028 172.144 63.6028 171.921C63.7534 171.586 63.7534 171.139 63.4521 170.804C63.1509 170.469 62.6991 170.246 62.2473 170.134C62.0967 170.134 61.9461 170.022 61.7955 170.022C61.0424 169.687 60.2894 169.576 59.5364 169.687C58.6327 169.911 57.5785 170.022 56.8254 170.357C56.5242 170.581 56.223 170.693 55.9218 170.804C55.6206 170.916 55.1687 171.139 54.8675 171.363C54.7169 171.474 54.5663 171.586 54.5663 171.698C54.4157 171.809 54.2651 171.921 54.1145 171.921C53.8133 172.033 53.6627 172.256 53.5121 172.368C53.2108 172.591 53.0602 172.815 52.9096 173.038C52.9096 173.038 52.9096 173.038 52.759 173.15C52.6084 173.261 52.6084 173.261 52.4578 173.373C52.4578 173.373 52.4578 173.485 52.3072 173.485L52.1566 173.596C51.8554 173.82 52.006 174.266 52.4578 174.378C52.6084 174.378 52.6084 174.378 52.759 174.378C52.759 174.378 52.759 174.378 52.9096 174.49C53.0602 174.601 53.2108 174.601 53.5121 174.713H53.6627C53.9639 174.825 54.1145 175.048 54.5663 175.048C54.7169 175.048 54.8675 175.048 55.0181 175.16C55.3193 175.272 55.6206 175.272 56.0724 175.272C56.223 175.272 56.3736 175.272 56.5242 175.272C56.8254 175.272 57.1266 175.383 57.4278 175.383C57.8797 175.383 58.3315 175.272 58.7833 175.272C59.3857 175.16 60.1388 175.048 60.7412 174.825C61.0424 174.713 61.3436 174.49 61.7955 174.378C62.0967 174.155 62.6991 174.043 62.8497 173.82C63.0003 173.373 63.3015 172.926 63.4521 172.368Z" fill="#FBBD08"/>
<path d="M71.5848 184.988C71.1329 183.983 69.7775 183.313 68.2714 183.313C67.669 183.313 67.2172 183.425 66.6147 183.425C66.3135 183.425 66.0123 183.536 65.7111 183.536C64.8074 183.425 64.0544 183.536 63.3014 183.871C62.5483 184.206 61.9459 184.43 61.4941 184.765C61.0422 185.1 60.741 185.435 60.4398 185.77C60.1386 186.105 59.6868 186.44 59.5362 186.887V186.998C58.7831 188.004 59.5362 189.455 61.0422 189.679C61.0422 189.679 61.0422 189.679 61.1929 189.679C61.6447 189.902 62.2471 190.014 63.0001 190.014H63.1508C64.205 190.126 65.2593 190.126 66.3135 189.902C67.2172 189.679 68.1208 189.232 68.7232 188.674C68.8738 188.562 69.0244 188.562 69.175 188.45C69.6269 188.227 70.2293 188.004 70.6811 187.669C71.5848 187.11 72.0366 185.993 71.5848 184.988Z" fill="#FBBD08"/>
<path d="M103.664 183.983C103.514 183.424 102.761 182.978 102.008 182.754C101.707 182.643 101.556 182.643 101.255 182.643C100.954 182.531 100.502 182.419 100.05 182.308C99.4474 182.196 98.6944 182.308 98.092 182.419C97.6402 182.531 97.1883 182.531 96.7365 182.643C96.4353 182.643 96.1341 182.643 95.6823 182.754C95.2304 182.866 94.7786 182.978 94.3268 183.201C93.875 183.313 93.4232 183.536 92.9713 183.76C92.5195 183.983 92.0677 184.095 91.7665 184.318C91.4653 184.43 91.164 184.541 90.8628 184.765C90.5616 184.876 90.411 185.1 90.2604 185.323C89.9592 185.546 89.8086 185.658 89.5074 185.881C89.3568 185.993 89.3568 186.217 89.2061 186.328C89.3568 186.217 89.3568 186.217 89.2061 186.328C89.0555 186.44 89.0555 186.552 89.0555 186.663C88.4531 186.998 88.9049 187.668 89.5074 187.78C89.658 187.892 89.8086 187.892 89.9592 188.003C90.2604 188.227 90.5616 188.339 91.0134 188.45C91.164 188.45 91.3147 188.45 91.4653 188.562C92.2183 188.785 93.2725 188.785 94.1762 188.674C95.2304 188.674 96.1341 188.562 97.1883 188.45C98.2426 188.339 98.9956 187.892 100.05 187.668C100.351 187.557 100.803 187.445 101.104 187.333C101.857 187.11 102.61 186.663 102.911 185.993C103.062 185.881 103.062 185.881 103.213 185.77C103.514 185.211 103.966 184.541 103.664 183.983Z" fill="#FBBD08"/>
<path d="M103.363 201.182C103.513 200.959 103.664 200.736 103.814 200.512C103.965 200.401 103.965 200.289 104.116 200.289C104.567 199.842 104.869 199.395 105.17 198.837C105.471 198.279 105.17 197.608 104.567 197.162C103.965 196.715 103.212 196.603 102.308 196.715C102.158 196.715 101.857 196.715 101.706 196.827C101.555 196.827 100.953 197.05 100.802 197.05C100.802 197.05 100.802 197.05 100.953 196.938C101.405 196.827 100.953 196.938 100.652 197.05C100.35 197.05 100.049 197.05 99.7481 197.05C98.995 197.05 98.3926 197.273 97.7902 197.497C97.6396 197.497 97.3383 197.608 97.1877 197.608C96.7359 197.72 96.1335 197.72 95.6817 197.943C95.3804 198.055 95.2298 198.167 94.9286 198.279C94.6274 198.39 94.1756 198.502 93.7238 198.614C93.4225 198.725 93.2719 198.725 92.9707 198.837C92.2177 198.949 91.7659 199.172 91.1634 199.395C91.0128 199.507 90.7116 199.507 90.561 199.619C89.9586 199.73 89.5068 199.954 89.0549 200.177C88.4525 200.401 87.8501 200.624 87.6995 201.182C87.2476 201.517 87.2476 202.076 87.5489 202.411C87.6995 202.969 88.4525 203.416 89.0549 203.528C89.3561 203.639 89.6574 203.751 89.808 203.863C90.1092 203.974 90.2598 203.974 90.561 204.086C91.314 204.198 92.0671 204.309 92.6695 204.309C92.3683 204.309 92.0671 204.198 91.7659 204.198C92.5189 204.309 93.2719 204.421 94.025 204.421C94.778 204.309 95.531 204.309 96.4347 204.198C97.9408 203.974 99.5974 203.751 100.652 202.969C100.953 202.858 101.254 202.634 101.555 202.523C102.158 202.076 102.76 201.852 103.363 201.182Z" fill="#FBBD08"/>
<path d="M131.827 184.876C131.978 184.541 132.279 184.206 132.43 183.871C132.43 183.648 132.581 183.425 132.581 183.313C132.581 183.09 132.581 182.866 132.43 182.754C132.279 182.196 131.827 181.861 131.376 181.526C130.924 181.303 130.472 181.079 129.87 180.968C129.267 180.856 128.514 180.968 127.912 181.191C127.761 181.191 127.761 181.191 127.61 181.303C127.008 181.303 126.406 181.414 125.803 181.749C125.653 181.861 125.351 181.973 125.201 182.084C124.9 182.196 124.598 182.308 124.297 182.531C124.146 182.531 124.146 182.643 123.996 182.643C123.544 182.866 123.092 182.978 122.64 183.09H122.791C122.49 183.201 122.038 183.313 121.737 183.536C121.436 183.76 121.285 183.871 121.134 184.095C120.231 184.765 120.231 185.993 121.134 186.663L121.285 186.775C121.586 187.11 121.887 187.334 122.339 187.557C122.942 187.78 123.544 187.892 124.147 187.892C124.297 187.892 124.598 187.892 124.749 187.892C125.201 187.892 125.502 187.892 125.954 187.892C126.556 187.892 127.008 187.892 127.61 187.78C128.062 187.669 128.665 187.557 129.117 187.333C129.267 187.222 129.568 187.222 129.719 187.11C130.472 186.775 130.924 186.44 131.376 185.882C131.526 185.547 131.677 185.212 131.827 184.876Z" fill="#FBBD08"/>
<path d="M137.852 173.373C137.852 173.261 138.003 173.261 138.003 173.15C138.154 172.926 138.304 172.814 138.304 172.591C138.304 172.368 138.304 172.144 138.304 171.921C138.304 171.809 138.154 171.698 138.154 171.586C138.003 171.363 137.702 171.139 137.401 171.028C137.25 171.028 137.25 170.916 137.099 170.916C136.648 170.692 136.045 170.581 135.593 170.581C135.443 170.581 135.443 170.469 135.141 170.469C134.84 170.469 134.539 170.357 134.238 170.357C133.786 170.357 133.334 170.357 133.033 170.581C132.732 170.692 132.732 170.692 132.431 170.804C132.129 170.916 131.979 171.028 131.677 171.139C131.226 171.363 130.774 171.586 130.623 171.921C130.473 171.921 130.322 172.144 130.322 172.256C130.021 172.591 129.87 173.038 130.021 173.373C130.171 173.82 130.623 174.155 131.075 174.266C131.226 174.378 131.376 174.49 131.677 174.601C132.129 174.825 132.581 174.936 133.184 174.936H134.087C134.991 174.936 135.894 174.713 136.648 174.266C136.798 174.155 136.798 174.155 136.949 174.043C137.25 173.931 137.401 173.82 137.551 173.708C137.551 173.708 137.702 173.596 137.852 173.373Z" fill="#FBBD08"/>
<path d="M166.317 175.272C166.467 174.937 166.618 174.713 166.618 174.378C166.618 173.931 166.467 173.596 166.166 173.15C166.016 172.926 165.865 172.815 165.714 172.591C165.413 172.368 165.112 172.144 164.66 172.033C164.359 171.921 164.058 171.921 163.757 171.921C163.305 171.809 162.853 171.809 162.401 171.921C162.25 171.921 162.1 171.921 161.949 171.921C161.497 171.921 161.196 172.033 160.744 172.256C160.443 172.368 160.142 172.479 159.69 172.591C159.389 172.703 159.088 172.815 158.786 172.926C158.636 173.038 158.485 173.038 158.335 173.15C157.883 173.373 157.431 173.596 157.28 173.931L157.13 174.043C156.829 174.266 156.527 174.49 156.527 174.825C156.377 175.048 156.377 175.495 156.527 175.718C156.829 176.053 156.979 176.388 157.431 176.5C157.732 176.612 157.883 176.612 158.184 176.723C158.184 176.723 158.184 176.723 158.335 176.723C158.786 176.947 159.238 176.947 159.69 177.059C159.841 177.059 159.991 177.059 160.293 177.059C160.594 177.059 161.046 177.059 161.347 177.059C161.648 177.059 161.949 177.058 162.401 176.947C162.853 176.947 163.305 176.947 163.757 176.835C163.907 176.835 164.058 176.723 164.359 176.723C164.66 176.612 164.961 176.612 165.112 176.5C165.564 176.388 165.865 176.165 166.166 175.83C166.016 175.718 166.166 175.495 166.317 175.272Z" fill="#FBBD08"/>
<path d="M158.636 190.237C158.636 190.349 158.636 190.237 158.636 190.237C158.938 189.567 158.486 188.897 157.883 188.562C157.883 188.562 157.883 188.562 158.034 188.562C158.034 188.562 158.034 188.562 157.883 188.562C157.733 188.562 157.733 188.562 157.883 188.562C157.582 188.338 157.13 188.115 156.678 188.003C156.227 187.892 155.624 187.892 155.172 187.892C154.871 187.892 154.57 187.892 154.269 188.003C153.516 188.115 152.913 188.227 152.16 188.45C150.805 188.897 149.449 189.232 148.244 189.79C147.642 190.014 147.04 190.237 146.437 190.46C146.136 190.572 145.985 190.684 145.684 190.907C145.383 191.019 144.931 191.242 144.63 191.354C144.027 191.577 143.726 191.912 143.425 192.359C143.576 192.136 143.726 192.024 143.425 192.247C143.274 192.359 143.124 192.471 142.973 192.582C142.521 193.029 141.919 193.476 141.166 193.811C141.015 193.811 141.015 194.034 141.166 194.034C141.618 194.034 142.07 193.923 142.521 194.034C142.823 194.034 143.124 194.034 143.425 194.034C143.576 194.146 143.877 194.146 144.178 194.258C144.329 194.258 144.479 194.258 144.479 194.258C144.78 194.369 145.082 194.369 145.383 194.481C145.684 194.481 146.136 194.369 146.437 194.369C146.738 194.369 147.04 194.258 147.341 194.258C147.491 194.258 147.793 194.258 147.793 194.258C149.148 194.258 150.504 193.923 151.708 193.699C152.311 193.588 152.913 193.476 153.516 193.364C154.269 193.253 155.172 193.141 155.775 192.806C156.227 192.582 156.829 192.359 157.281 192.136C157.733 191.912 158.185 191.689 158.486 191.242C158.486 190.796 158.486 190.572 158.636 190.237Z" fill="#FBBD08"/>
<path d="M125.653 204.421C125.803 204.309 125.803 204.086 125.954 203.974C126.406 203.192 125.352 202.187 124.297 202.299C123.996 202.299 123.544 202.299 123.093 202.411C122.791 202.411 122.49 202.522 122.339 202.634C121.888 202.746 121.436 202.857 120.984 202.857C120.532 202.857 120.08 202.857 119.629 202.969C119.026 203.081 118.424 203.304 117.821 203.527C117.821 203.527 117.821 203.527 117.972 203.527C117.821 203.639 117.52 203.639 117.369 203.751C117.219 203.863 116.918 203.974 116.767 203.974C116.616 204.086 116.315 204.086 116.165 204.198C115.713 204.421 115.261 204.644 114.96 204.979C114.658 205.091 114.357 205.203 114.207 205.426C113.755 205.761 113.604 206.096 113.604 206.543C113.604 206.99 113.905 207.325 114.508 207.548C114.96 207.771 115.562 207.771 116.014 207.883C116.616 208.107 117.219 208.218 117.821 208.218C118.424 208.218 119.026 208.107 119.629 208.107C120.231 207.995 120.833 207.883 121.285 207.66C121.888 207.436 122.49 207.325 122.942 206.99C123.394 206.655 123.996 206.208 124.448 205.873C124.749 205.649 124.9 205.538 125.201 205.314C125.352 204.868 125.502 204.644 125.653 204.421Z" fill="#FBBD08"/>
<ellipse cx="105.052" cy="105.979" rx="70.7778" ry="71.5825" fill="#FBBD08"/>
<path d="M49.053 115.121V115.04L81.534 74.054H81.615V109.127H88.5V115.121H81.615V128H73.758V115.121H49.053ZM74.244 91.793L60.555 109.532L59.34 109.127H73.758V90.335L74.244 91.793ZM107.143 128.648C104.281 128.648 101.527 128.135 98.8807 127.109C96.2887 126.083 94.1827 124.76 92.5627 123.14L96.7747 117.065C97.8547 118.307 99.2857 119.306 101.068 120.062C102.904 120.818 104.713 121.196 106.495 121.196C108.493 121.196 110.248 120.764 111.76 119.9C113.326 118.982 114.541 117.767 115.405 116.255C116.269 114.689 116.701 112.907 116.701 110.909C116.701 108.749 116.296 106.832 115.486 105.158C114.73 103.484 113.569 102.188 112.003 101.27C110.491 100.298 108.574 99.812 106.252 99.812C104.362 99.812 102.607 100.082 100.987 100.622C99.3667 101.108 97.6927 101.864 95.9647 102.89H95.8837V74.702H121.399V82.235H102.688V95.843L101.635 94.223C102.553 93.899 103.579 93.656 104.713 93.494C105.901 93.278 107.035 93.17 108.115 93.17C111.733 93.17 114.757 93.98 117.187 95.6C119.671 97.166 121.534 99.272 122.776 101.918C124.072 104.564 124.72 107.48 124.72 110.666C124.72 114.014 123.964 117.065 122.452 119.819C120.94 122.519 118.861 124.679 116.215 126.299C113.569 127.865 110.545 128.648 107.143 128.648ZM144.033 94.304H150.918V105.806H162.177V112.367H150.918V123.869H144.033V112.367H132.693V105.806H144.033V94.304Z" fill="#062D3E"/>
<path d="M37.8335 156.906C39.541 155.456 41.2392 154.565 42.9283 154.232C44.6055 153.886 46.2306 154.061 47.8036 154.757C49.3766 155.454 50.8666 156.65 52.2735 158.345L55.8326 162.632L40.5937 175.572L36.659 170.832C35.3712 169.281 34.541 167.697 34.1682 166.079C33.7954 164.461 33.9076 162.872 34.5047 161.312C35.0876 159.764 36.1972 158.295 37.8335 156.906ZM39.5966 158.898C38.2449 160.046 37.3258 161.218 36.8394 162.415C36.3411 163.597 36.2493 164.801 36.564 166.028C36.8525 167.252 37.5095 168.482 38.5349 169.717L40.6274 172.238L52.5796 162.088L50.8447 159.999C49.1159 157.916 47.317 156.787 45.4483 156.61C43.5535 156.432 41.6029 157.194 39.5966 158.898Z" fill="white"/>
<path d="M24.9067 142.892L38.6225 136.8L39.604 139.06L25.8881 145.152L24.9067 142.892ZM20.2428 146.281C20.0941 145.939 20.0834 145.586 20.2107 145.223C20.3135 144.851 20.6123 144.554 21.107 144.335C21.5847 144.122 22.0024 144.1 22.3602 144.268C22.7106 144.419 22.9601 144.666 23.1088 145.008C23.2724 145.385 23.2905 145.754 23.1632 146.117C23.0359 146.48 22.7334 146.768 22.2557 146.98C21.761 147.2 21.347 147.23 21.0137 147.072C20.6633 146.921 20.4064 146.658 20.2428 146.281Z" fill="white"/>
<path d="M20.7392 122.172L21.5327 125.868L34.3317 123.057L34.8489 125.466L22.0499 128.277L22.6024 130.85L21.4812 131.096L20.1082 128.703L19.2604 128.889C18.0024 129.166 16.9422 129.207 16.0799 129.015C15.2136 128.803 14.5217 128.382 14.0043 127.75C13.4868 127.119 13.1203 126.301 12.9048 125.297C12.7794 124.713 12.7205 124.172 12.728 123.673C12.7134 123.161 12.7326 122.717 12.7858 122.342L14.808 122.557C14.7796 122.869 14.7609 123.227 14.752 123.63C14.7431 124.033 14.7818 124.436 14.868 124.837C15.0404 125.64 15.4432 126.183 16.0764 126.464C16.6874 126.731 17.5672 126.739 18.7158 126.486L19.673 126.276L18.8796 122.58L20.7392 122.172Z" fill="white"/>
<path d="M19.5841 103.256L19.5782 107.036L32.6821 107.057L32.6782 109.521L19.5743 109.5L19.5701 112.132L18.4221 112.13L17.5863 109.497L16.7183 109.496C15.4303 109.494 14.3852 109.306 13.5832 108.931C12.7811 108.538 12.194 107.977 11.8218 107.248C11.4496 106.52 11.2643 105.642 11.266 104.615C11.2669 104.018 11.3238 103.477 11.4365 102.992C11.5307 102.488 11.6433 102.059 11.7746 101.704L13.7056 102.351C13.6117 102.65 13.5179 102.995 13.4239 103.387C13.33 103.779 13.2827 104.18 13.282 104.59C13.2807 105.412 13.5597 106.028 14.1191 106.44C14.6598 106.833 15.5182 107.03 16.6942 107.032L17.6742 107.033L17.6801 103.253L19.5841 103.256Z" fill="white"/>
<path d="M20.2434 84.5219C20.5844 83.2798 21.1455 82.2935 21.9267 81.5628C22.7129 80.8141 23.6645 80.3446 24.7814 80.1541C25.8853 79.9405 27.0932 80.0179 28.4051 80.3863L29.8339 80.7874L27.1138 90.6969C28.7591 91.1201 30.1218 91.0568 31.2018 90.5069C32.2689 89.9341 33 88.9276 33.3953 87.4875C33.6473 86.5695 33.7888 85.7367 33.8197 84.9893C33.8377 84.2188 33.7887 83.4101 33.6727 82.5633L35.7484 83.1461C35.8693 83.9749 35.9028 84.7696 35.849 85.53C35.8131 86.2954 35.6592 87.1731 35.3875 88.1632C35.012 89.5313 34.3999 90.6681 33.5512 91.5737C32.7075 92.4613 31.656 93.0483 30.3967 93.3345C29.1243 93.5977 27.6884 93.5047 26.0889 93.0556C24.5074 92.6116 23.2222 91.9696 22.2332 91.1297C21.2492 90.2718 20.5827 89.28 20.2335 88.1544C19.8893 87.0108 19.8926 85.7999 20.2434 84.5219ZM22.177 85.0939C21.8657 86.2279 21.987 87.2314 22.541 88.1043C23.082 88.9542 23.9822 89.6238 25.2416 90.1131L27.265 82.7417C26.4383 82.5096 25.6848 82.4338 25.0046 82.5142C24.3244 82.5947 23.7419 82.848 23.2572 83.2741C22.7594 83.6772 22.3993 84.2838 22.177 85.0939Z" fill="white"/>
<path d="M32.1466 57.3308C32.2912 57.091 32.4613 56.8451 32.657 56.593C32.8464 56.315 33.0276 56.0869 33.2006 55.9085L34.9718 57.363C34.7988 57.5414 34.6193 57.7487 34.4332 57.9848C34.2569 58.205 34.1012 58.427 33.9662 58.6508C33.6674 59.1463 33.4862 59.6815 33.4228 60.2565C33.3594 60.8315 33.4123 61.4124 33.5815 61.9993C33.7348 62.5764 34.0109 63.1305 34.4099 63.6617C34.8185 64.177 35.3484 64.6355 35.9998 65.0373L42.8152 69.2418L41.5427 71.3518L28.7697 63.472L29.8109 61.7457L32.2908 62.9466L32.3487 62.8507C32.036 62.285 31.8046 61.6927 31.6547 61.0738C31.4889 60.4452 31.4442 59.8145 31.5207 59.1818C31.5812 58.5392 31.7899 57.9222 32.1466 57.3308Z" fill="white"/>
<path d="M44.9598 41.8493C45.9007 40.9696 46.8941 40.4242 47.94 40.2128C48.9996 39.9888 50.053 40.0899 51.1002 40.5162C52.1484 40.9161 53.1322 41.6189 54.0515 42.6247L55.0527 43.72L47.5465 50.738C48.7198 51.9663 49.9087 52.6307 51.1131 52.7311C52.3186 52.805 53.4668 52.3321 54.5576 51.3122C55.253 50.662 55.81 50.0263 56.2284 49.4051C56.6479 48.7574 57.0306 48.0419 57.3766 47.2584L58.8312 48.8498C58.4988 49.6205 58.1103 50.3159 57.6657 50.9361C57.2336 51.57 56.6426 52.2376 55.8926 52.9387C54.8563 53.9076 53.7408 54.5546 52.5459 54.8796C51.3646 55.1919 50.1649 55.1381 48.9467 54.7183C47.7295 54.272 46.5605 53.4358 45.4397 52.2095C44.3314 50.997 43.5783 49.7719 43.1803 48.5342C42.7959 47.2837 42.751 46.0864 43.0455 44.9423C43.3536 43.7854 43.9917 42.7544 44.9598 41.8493ZM46.2995 43.3564C45.4405 44.1596 45.0169 45.0795 45.0287 46.1161C45.0416 47.1261 45.4537 48.1718 46.265 49.2531L51.8487 44.0326C51.2694 43.3988 50.6702 42.9369 50.0511 42.6469C49.432 42.357 48.8051 42.2659 48.1704 42.3738C47.5367 42.4552 46.9131 42.7828 46.2995 43.3564Z" fill="white"/>
<path d="M69.9882 24.7638C71.619 24.0212 73.0291 23.861 74.2183 24.2835C75.4 24.6888 76.3856 25.7783 77.1752 27.5518L81.1496 36.479L78.9327 37.4886L75.0265 28.7148C74.5331 27.6064 73.9185 26.8915 73.1829 26.5701C72.4473 26.2488 71.5529 26.3279 70.4996 26.8076C68.9877 27.4961 68.1327 28.3982 67.9347 29.5139C67.7367 30.6296 67.9946 31.9889 68.7082 33.5919L71.8741 40.703L69.6317 41.7241L63.5276 28.0135L65.3369 27.1896L66.4995 28.9061L66.6269 28.8481C66.7201 28.2313 66.9192 27.6689 67.2243 27.1608C67.5387 26.6279 67.9335 26.161 68.4088 25.7599C68.8841 25.3589 69.4106 25.0269 69.9882 24.7638Z" fill="white"/>
<path d="M97.0146 30.9274C97.3834 30.8696 97.7572 30.7826 98.136 30.6665C98.5119 30.532 98.8141 30.409 99.0425 30.2976L99.3269 32.1519C99.0885 32.3216 98.7352 32.4809 98.2671 32.6299C97.8017 32.7974 97.3478 32.9158 96.9052 32.9852C96.1307 33.1067 95.3916 33.0903 94.6881 32.9361C94.0003 32.7606 93.4026 32.3725 92.895 31.7719C92.3874 31.1713 92.0417 30.2713 91.8578 29.072L90.5338 20.4369L88.4315 20.7666L88.2533 19.6042L90.2347 18.3015L90.7191 14.9945L92.1576 14.7689L92.6795 18.1731L96.9671 17.5007L97.2557 19.3827L92.9681 20.0551L94.2836 28.6349C94.4222 29.539 94.7376 30.1792 95.2296 30.5555C95.7373 30.9105 96.3322 31.0344 97.0146 30.9274Z" fill="white"/>
<path d="M126.382 35.0653C125.109 34.6991 124.043 34.1111 123.184 33.3011C122.344 32.4964 121.791 31.4634 121.525 30.2021C121.277 28.9461 121.393 27.4644 121.873 25.7572C122.373 23.9781 123.075 22.6166 123.98 21.6726C124.885 20.7286 125.913 20.1405 127.065 19.9081C128.234 19.6809 129.464 19.753 130.756 20.1243C131.491 20.3357 132.177 20.6203 132.813 20.978C133.455 21.3177 133.96 21.6573 134.33 21.9967L133.051 23.7556C132.666 23.4701 132.206 23.173 131.673 22.8642C131.139 22.5554 130.621 22.3288 130.119 22.1844C129.15 21.9059 128.293 21.8831 127.549 22.1159C126.805 22.3487 126.167 22.8257 125.635 23.5467C125.103 24.2677 124.667 25.2302 124.329 26.4342C124.006 27.5843 123.883 28.6075 123.961 29.5039C124.038 30.4002 124.324 31.1427 124.818 31.7314C125.312 32.3201 126.016 32.7459 126.931 33.0089C127.721 33.2358 128.434 33.3535 129.071 33.3619C129.727 33.3755 130.339 33.3377 130.907 33.2485L130.316 35.3511C129.761 35.4634 129.169 35.4974 128.542 35.453C127.927 35.4317 127.208 35.3025 126.382 35.0653Z" fill="white"/>
<path d="M155.24 31.3595C156.76 32.377 157.665 33.4656 157.955 34.6252C158.245 35.7849 157.909 37.0988 156.948 38.5671L151.352 47.119L149.863 46.1222L150.633 44.0768L150.54 44.0145C149.886 44.2287 149.264 44.3622 148.671 44.415C148.105 44.4626 147.528 44.3905 146.939 44.1989C146.366 44.0176 145.731 43.6933 145.033 43.2261C144.288 42.7277 143.7 42.1433 143.269 41.4728C142.853 40.8128 142.654 40.0952 142.67 39.32C142.697 38.5293 142.986 37.7122 143.538 36.8687C144.356 35.6191 145.473 34.9856 146.89 34.968C148.317 34.9349 150.067 35.5671 152.14 36.8648L154.303 38.2118L154.794 37.462C155.479 36.4155 155.729 35.5386 155.545 34.8314C155.361 34.1242 154.857 33.4954 154.035 32.9451C153.384 32.5091 152.697 32.1953 151.974 32.0038C151.262 31.7967 150.569 31.6468 149.893 31.5541L150.277 29.5872C151.014 29.6538 151.821 29.8348 152.699 30.1301C153.586 30.4098 154.434 30.8196 155.24 31.3595ZM151.46 38.4653C149.868 37.4895 148.627 37.0178 147.735 37.0503C146.86 37.0931 146.161 37.5128 145.64 38.3094C145.18 39.0123 145.052 39.6679 145.256 40.2763C145.476 40.895 145.92 41.4276 146.587 41.8741C147.641 42.5801 148.707 42.8778 149.783 42.7671C150.87 42.6407 151.812 41.9684 152.609 40.75L153.345 39.6254L151.46 38.4653Z" fill="white"/>
<path d="M164.798 57.8827C165.044 58.1636 165.317 58.4329 165.617 58.6905C165.931 58.9356 166.195 59.1246 166.411 59.2574L165.013 60.5088C164.744 60.3993 164.421 60.1869 164.046 59.8715C163.657 59.5686 163.315 59.2486 163.019 58.9115C162.503 58.3215 162.121 57.6866 161.873 57.0066C161.651 56.3283 161.655 55.6104 161.886 54.8532C162.116 54.0959 162.683 53.3126 163.587 52.5032L170.095 46.6758L168.693 45.0746L169.57 44.2901L171.72 45.2587L174.743 43.8668L175.702 44.9623L173.137 47.2597L175.995 50.5253L174.577 51.7954L171.718 48.5298L165.251 54.3199C164.57 54.93 164.204 55.546 164.153 56.1679C164.128 56.7914 164.343 57.363 164.798 57.8827Z" fill="white"/>
<path d="M186.253 66.2122C186.814 67.3714 187.043 68.487 186.94 69.5587C186.845 70.6473 186.443 71.6379 185.735 72.5304C185.051 73.4314 184.099 74.1843 182.878 74.7891L181.548 75.4478L177.069 66.1991C175.563 66.9867 174.588 67.9489 174.143 69.0858C173.723 70.2313 173.838 71.476 174.489 72.82C174.904 73.6769 175.346 74.3956 175.813 74.9763C176.306 75.5654 176.874 76.1383 177.517 76.6947L175.585 77.6517C174.95 77.112 174.403 76.5393 173.944 75.9335C173.468 75.3361 173.006 74.5754 172.559 73.6513C171.94 72.3745 171.65 71.112 171.689 69.864C171.736 68.6327 172.135 67.4871 172.887 66.4273C173.664 65.376 174.796 64.4817 176.285 63.7443C177.757 63.0152 179.138 62.6332 180.428 62.5985C181.726 62.5805 182.874 62.8759 183.874 63.4847C184.882 64.1102 185.675 65.0194 186.253 66.2122ZM184.434 67.0818C183.922 66.0234 183.172 65.3532 182.185 65.0713C181.223 64.7979 180.111 64.9006 178.85 65.3796L182.182 72.2594C182.951 71.8783 183.563 71.4292 184.018 70.9123C184.473 70.3954 184.741 69.8147 184.823 69.17C184.93 68.5339 184.8 67.8378 184.434 67.0818Z" fill="white"/>
<path d="M194.922 93.4042C195.051 94.3851 194.982 95.2891 194.714 96.1162C194.449 96.9618 193.974 97.7133 193.288 98.3706L193.307 98.5094L195.321 98.5773L195.576 100.521L180.453 102.557C179.047 102.746 177.841 102.663 176.834 102.309C175.808 101.958 174.991 101.324 174.381 100.408C173.77 99.4914 173.366 98.2746 173.166 96.757C173.025 95.6836 172.977 94.6822 173.025 93.753C173.056 92.8447 173.182 92.0178 173.404 91.2722L175.652 90.9696C175.475 91.4831 175.341 92.038 175.25 92.6341C175.14 93.2327 175.083 93.8714 175.078 94.5501C175.073 95.2288 175.117 95.9198 175.21 96.6231C175.378 97.9001 175.889 98.8484 176.742 99.468C177.58 100.109 178.646 100.342 179.941 100.168L180.524 100.089C180.746 100.059 181.061 100.026 181.471 99.9898C181.899 99.951 182.197 99.9297 182.366 99.9258L182.351 99.8147C181.525 99.3987 180.875 98.8269 180.403 98.0994C179.933 97.3904 179.631 96.527 179.497 95.5091C179.244 93.5844 179.721 91.9851 180.927 90.7114C182.136 89.4562 183.953 88.6654 186.376 88.3392C187.967 88.125 189.368 88.1813 190.578 88.508C191.809 88.8508 192.799 89.4333 193.548 90.2555C194.296 91.0776 194.754 92.1272 194.922 93.4042ZM192.913 94.0138C192.803 93.181 192.487 92.4983 191.965 91.9659C191.446 91.4519 190.74 91.0949 189.847 90.8949C188.957 90.7133 187.902 90.7047 186.681 90.8691C184.85 91.1157 183.487 91.6381 182.595 92.4363C181.723 93.2506 181.372 94.3055 181.543 95.601C181.642 96.3598 181.82 96.9951 182.076 97.5069C182.35 98.0162 182.714 98.4193 183.167 98.7161C183.639 99.0105 184.209 99.1973 184.879 99.2767C185.548 99.3561 186.327 99.336 187.215 99.2165L187.798 99.138C189.148 98.9562 190.219 98.652 191.01 98.2253C191.803 97.8171 192.352 97.263 192.655 96.5629C192.958 95.8629 193.044 95.0132 192.913 94.0138Z" fill="white"/>
<path d="M185.649 128.564C184.421 128.324 183.362 127.947 182.473 127.43C181.598 126.936 180.889 126.322 180.345 125.588C179.797 124.873 179.431 124.05 179.248 123.12C179.079 122.213 179.095 121.236 179.294 120.191C179.48 119.219 179.816 118.353 180.303 117.592C180.809 116.835 181.449 116.218 182.224 115.742C182.999 115.266 183.887 114.945 184.888 114.779C185.904 114.635 187.025 114.683 188.253 114.923C189.884 115.241 191.205 115.784 192.218 116.553C193.248 117.324 193.959 118.281 194.349 119.422C194.758 120.567 194.827 121.846 194.558 123.257C194.302 124.596 193.776 125.71 192.979 126.601C192.196 127.513 191.183 128.142 189.939 128.489C188.709 128.858 187.279 128.883 185.649 128.564ZM187.775 117.425C186.621 117.2 185.585 117.15 184.668 117.275C183.766 117.422 183.025 117.772 182.444 118.324C181.864 118.876 181.479 119.648 181.29 120.638C181.101 121.628 181.174 122.489 181.509 123.22C181.845 123.951 182.406 124.546 183.193 125.003C183.994 125.483 184.972 125.836 186.126 126.061C187.299 126.29 188.327 126.329 189.211 126.179C190.095 126.028 190.818 125.675 191.38 125.119C191.957 124.585 192.342 123.814 192.535 122.805C192.822 121.302 192.535 120.114 191.676 119.243C190.816 118.371 189.516 117.765 187.775 117.425Z" fill="white"/>
<path d="M184.903 150.986C184.778 151.236 184.628 151.495 184.453 151.762C184.286 152.054 184.123 152.296 183.965 152.488L182.083 151.181C182.241 150.989 182.404 150.768 182.57 150.518C182.729 150.284 182.866 150.051 182.983 149.817C183.242 149.299 183.38 148.751 183.397 148.173C183.414 147.595 183.315 147.021 183.1 146.449C182.901 145.887 182.581 145.357 182.141 144.859C181.693 144.379 181.128 143.964 180.446 143.616L173.314 139.974L174.415 137.769L187.781 144.596L186.88 146.4L184.311 145.402L184.261 145.502C184.618 146.041 184.896 146.612 185.095 147.217C185.31 147.83 185.405 148.455 185.379 149.091C185.37 149.737 185.211 150.368 184.903 150.986Z" fill="white"/>
<path d="M178.648 161.122L176.89 163.081L168.429 159.724C167.933 159.522 167.464 159.319 167.02 159.115C166.564 158.924 166.127 158.726 165.71 158.52C165.306 158.327 164.928 158.12 164.576 157.898L164.501 157.981C164.77 158.38 165.099 158.922 165.487 159.608C165.889 160.306 166.284 161.011 166.674 161.723L170.907 169.75L169.13 171.73L160.866 155.367C160.415 154.472 160.097 153.61 159.913 152.782C159.702 151.955 159.689 151.158 159.875 150.392C160.035 149.626 160.439 148.883 161.088 148.16C161.387 147.827 161.669 147.554 161.935 147.342C162.187 147.117 162.414 146.933 162.618 146.79L164.062 148.115C163.897 148.243 163.708 148.398 163.493 148.582C163.266 148.779 163.047 148.995 162.835 149.231C162.448 149.662 162.2 150.106 162.091 150.563C161.956 151.022 161.94 151.501 162.043 152.001C162.132 152.488 162.308 152.991 162.569 153.51L163.51 155.438L178.648 161.122Z" fill="white"/>
</svg>
