<svg width="35" height="37" viewBox="0 0 35 37" fill="none" xmlns="http://www.w3.org/2000/svg">
<path d="M34.94 18.0591C34.94 8.04002 27.1623 0 17.47 0C7.77774 0 0 8.04002 0 18.0591C0 27.0887 6.34185 34.6339 14.7179 35.9946V23.2542H10.2905V18.0591H14.7179V14.101C14.7179 9.52433 17.3503 7.05048 21.299 7.05048C23.2136 7.05048 25.2477 7.42156 25.2477 7.42156V11.8745H23.0939C20.9401 11.8745 20.2221 13.2351 20.2221 14.7194V18.0591H25.1281L24.4101 23.2542H20.3418V35.8709C28.5982 34.6339 34.94 27.0887 34.94 18.0591Z" fill="white"/>
<path d="M24.2552 23.3077L24.972 18.1012H20.0738V14.7541C20.0738 13.2666 20.7906 11.903 22.9411 11.903H25.0915V7.44025C25.0915 7.44025 23.0605 7.06836 21.149 7.06836C17.2065 7.06836 14.5782 9.54765 14.5782 14.1343V18.1012H10.2773V23.3077H14.6977V35.9521C15.534 36.076 16.4897 36.2 17.4455 36.2C18.4012 36.2 19.2375 36.076 20.1933 35.9521V23.3077H24.2552Z" fill="#062D3E"/>
</svg>
