<svg width="301" height="93" viewBox="0 0 301 93" fill="none" xmlns="http://www.w3.org/2000/svg">
<g clip-path="url(#clip0_1_729)">
<path d="M62.729 83.4374C62.0564 79.0798 60.4942 74.9072 58.1394 71.1794C55.7847 67.4516 52.6879 64.2484 49.0418 61.7691C49.1141 58.3102 49.9188 54.9059 51.4028 51.7807C52.8868 48.6555 55.0164 45.8803 57.6511 43.6382C71.0502 32.4952 89.7485 35.832 102.632 45.9653L103.409 46.5786C100.937 48.961 99.1073 51.93 98.0913 55.2095C95.6797 63.5486 104.171 75.2058 113.038 69.0167C121.607 63.0338 116.796 53.4707 111.049 46.9882C112.795 45.7661 114.638 44.6903 116.561 43.7717C126.847 38.946 140.577 38.2258 151.545 42.8654C149.144 46.5916 147.92 50.8237 148.988 55.36C150.641 62.4755 160.97 67.5929 166.906 62.1617C174.763 55.004 165.531 45.6895 158.758 41.3616C161.708 38.5585 165.097 36.258 168.791 34.5519C175.192 31.645 182.18 30.2609 189.206 30.5082C196.231 30.7555 203.104 32.6275 209.285 35.9774C211.1 36.9706 212.848 38.0799 214.519 39.2982C211.918 42.8568 209.9 47.1824 210.836 51.6334C211.288 53.672 212.348 55.5253 213.877 56.9475C215.406 58.3698 217.33 59.2939 219.396 59.5973C221.332 59.7588 223.257 59.1706 224.772 57.9541C226.287 56.7377 227.277 54.9859 227.538 53.0605C228.221 48.6001 225.671 44.0469 222.836 40.8363C222.197 40.1061 221.521 39.4104 220.826 38.727C222.244 37.2622 223.767 35.9018 225.381 34.6565C236.593 25.9761 251.624 22.8775 265.489 25.2729C266.928 25.5164 268.345 25.8429 269.748 26.2114C269.767 29.0383 270.062 31.8566 270.628 34.6263C272.487 43.6609 278.44 57.6206 289.298 58.336C299.446 59.0042 300.621 47.8604 297.31 40.8595C293.13 31.9571 283.27 26.2005 274.276 23.1913C273.847 23.0506 273.428 22.9185 273 22.7877C273.338 16.0943 275.294 9.5826 278.701 3.81108C279.447 2.53512 277.257 1.21209 276.469 2.47286C272.802 8.36266 270.556 15.0253 269.909 21.9333C251.618 17.4409 230.66 22.1032 217.464 35.8301C203.275 24.5215 181.96 22.5701 165.8 30.6953C161.576 32.805 157.743 35.6194 154.465 39.0175C144.6 34.6034 133.543 33.6121 123.05 36.2011C117.398 37.5629 112.045 39.9507 107.255 43.246L106.884 42.9171C97.9478 35.4306 86.2085 30.6504 74.4035 31.5567C58.9484 32.7619 45.6656 44.8075 43.8848 58.9326C41.583 57.9648 39.1625 57.3084 36.6872 56.9806C23.6435 55.2337 10.8979 62.6044 5.05083 74.1773C3.5397 77.1645 8.31516 79.2404 9.81635 76.2544C14.5927 66.7911 25.2505 60.6731 35.9013 62.1077C38.6605 62.4783 41.3335 63.329 43.7993 64.6215C44.2443 68.9203 45.7039 73.052 48.0579 76.6763C50.7067 80.8539 54.5613 84.129 59.1118 86.0684C59.526 86.2533 59.9815 86.3258 60.4327 86.2785C60.8838 86.2312 61.3145 86.0658 61.6813 85.799C62.0481 85.5322 62.3381 85.1734 62.5221 84.7588C62.706 84.3442 62.7774 83.8884 62.729 83.4374ZM287.099 34.691C290.312 37.0705 292.804 40.2938 294.297 44.0033C296.043 48.7417 295.32 54.7474 288.927 54.1607C279.289 53.2816 274.421 38.449 273.34 30.5512C273.206 29.4091 273.071 28.2669 273.018 27.1254C278.119 28.8006 282.886 31.3617 287.099 34.691ZM222.949 52.3119C221.738 57.6803 215.785 53.6386 215.137 50.4425C214.628 47.9146 215.962 45.1396 217.298 43.1397C217.518 42.7915 217.75 42.4521 217.992 42.1115C221.273 45.0883 223.796 48.7283 222.987 52.2973L222.949 52.3119ZM161.06 49.0251C163.742 51.6194 167.458 58.9854 161.036 59.4292C160.06 59.4893 159.081 59.3485 158.161 59.0156C157.241 58.6827 156.399 58.1648 155.687 57.4937C154.975 56.8227 154.408 56.0129 154.021 55.1142C153.634 54.2155 153.435 53.2471 153.437 52.2686C153.451 49.6588 154.241 47.1122 155.707 44.953C157.653 46.0954 159.462 47.4568 161.099 49.0105L161.06 49.0251ZM110.601 54.1295C111.343 55.1738 111.868 56.3562 112.145 57.6069C112.422 58.8576 112.445 60.1511 112.213 61.4109C111.233 65.6547 106.675 66.5436 104.005 63.2734C100.272 58.6783 103.053 53.8199 107.211 49.9673C108.505 51.2173 109.655 52.6085 110.639 54.1149L110.601 54.1295ZM50.0589 69.2112C52.6201 71.7675 54.6397 74.8139 55.9968 78.1684C53.2315 75.787 51.188 72.6792 50.0974 69.1966L50.0589 69.2112Z" fill="#FBBD08"/>
</g>
<defs>
<clipPath id="clip0_1_729">
<rect width="58.38" height="295.47" fill="white" transform="translate(293.446 0.000976562) rotate(83.2859)"/>
</clipPath>
</defs>
</svg>
