<svg width="35" height="37" viewBox="0 0 35 37" fill="none" xmlns="http://www.w3.org/2000/svg">
<path d="M17.5027 36.2031C27.1525 36.2031 34.9752 28.0987 34.9752 18.1015C34.9752 8.10433 27.1525 0 17.5027 0C7.85297 0 0.030304 8.10433 0.030304 18.1015C0.030304 28.0987 7.85297 36.2031 17.5027 36.2031Z" fill="white"/>
<path d="M22.8892 11.2808C22.1711 11.2808 21.6924 11.7767 21.6924 12.5206C21.6924 13.2645 22.2908 13.7604 22.8892 13.7604C23.6072 13.7604 24.0859 13.2645 24.0859 12.5206C24.0859 11.9007 23.6072 11.2808 22.8892 11.2808Z" fill="#062D3E"/>
<path d="M17.6231 12.8955C14.8706 12.8955 12.5967 15.2512 12.5967 18.1028C12.5967 20.9544 14.8706 23.3101 17.6231 23.3101C20.3756 23.3101 22.6494 20.9544 22.6494 18.1028C22.6494 15.2512 20.3756 12.8955 17.6231 12.8955ZM17.6231 21.4503C15.8279 21.4503 14.3919 19.9625 14.3919 18.1028C14.3919 16.2431 15.8279 14.7553 17.6231 14.7553C19.4182 14.7553 20.8543 16.2431 20.8543 18.1028C20.8543 19.9625 19.4182 21.4503 17.6231 21.4503Z" fill="#062D3E"/>
<path d="M21.5733 28.7649H13.4355C10.0846 28.7649 7.33209 25.9133 7.33209 22.4417V14.0109C7.33209 10.5394 10.0846 7.68774 13.4355 7.68774H21.5733C24.9242 7.68774 27.6767 10.5394 27.6767 14.0109V22.3178C27.7964 25.9133 25.0439 28.7649 21.5733 28.7649ZM13.4355 9.54749C11.042 9.54749 9.24688 11.5312 9.24688 13.8869V22.3178C9.24688 24.7974 11.1617 26.6572 13.4355 26.6572H21.5733C23.9668 26.6572 25.7619 24.6734 25.7619 22.3178V13.8869C25.7619 11.4072 23.8471 9.54749 21.5733 9.54749H13.4355Z" fill="#062D3E"/>
</svg>
