<svg width="47" height="41" viewBox="0 0 47 41" fill="none" xmlns="http://www.w3.org/2000/svg">
<path d="M38.7996 11.1159C38.7815 10.9072 38.7746 10.6981 38.7672 10.4768L38.7655 10.4285C38.7012 8.49119 37.1537 6.90397 35.2026 6.72811C33.8621 5.70303 32.0195 5.21664 30.1639 5.47601L10.7426 8.18874L10.4778 8.22574L7.64758 8.621V9.03068C7.64758 11.6833 8.84002 13.5941 11.1918 14.7097C13.0582 15.595 15.6401 16.0073 19.3171 16.0073H22.4028C22.7831 16.0073 23.1187 16.1676 23.3236 16.447C23.5285 16.7263 23.5548 17.0592 23.3954 17.3604L20.9461 21.9918C19.7419 22.2463 18.6096 22.7556 17.6084 23.503C16.283 24.4922 15.2659 25.8665 14.7148 27.4028H12.0584V31.1803C12.0584 33.4825 13.8988 35.3956 16.2176 35.5722L16.2341 35.5931H29.2702L29.4347 35.3888C30.6388 33.8938 31.2752 32.0949 31.2752 30.1864C31.2752 29.7729 31.2442 29.3638 31.1842 28.9602H37.241V20.1131C37.6806 19.9899 38.0879 19.7651 38.4329 19.4492C38.9891 18.94 39.3151 18.2544 39.3509 17.5185L39.3524 17.4901L38.7996 11.1159ZM8.75952 9.43892L10.4779 9.19884V10.7607H8.96505C8.85214 10.3519 8.78384 9.91186 8.75952 9.43892ZM13.16 28.3637H14.6263C14.4538 29.0081 13.8869 29.5211 13.16 29.6979V28.3637ZM28.6923 34.6321H16.8049L16.8012 34.6277L16.5257 34.6242C14.6699 34.6011 13.16 33.0561 13.16 31.1803V30.6129C14.6054 30.3833 15.705 29.2776 15.705 27.9515V27.8727C16.1779 26.4333 17.1032 25.1449 18.3246 24.2332C18.9404 23.7735 19.6126 23.4187 20.322 23.1723C20.7717 23.0162 21.2366 22.9041 21.7121 22.8376C22.0546 22.7897 22.4024 22.7641 22.7541 22.7641C23.6377 22.7641 24.5028 22.9184 25.3254 23.2228L26.0912 23.5061V20.6278C28.0552 20.8627 29.5728 22.3359 29.5728 24.1127V27.2567L29.6059 27.3362C29.6966 27.5542 29.776 27.7754 29.8452 27.9994C29.9426 28.3145 30.0168 28.6353 30.0709 28.9604C30.1379 29.363 30.1736 29.7721 30.1736 30.1865C30.1735 31.8095 29.6623 33.3411 28.6923 34.6321ZM36.1393 27.9993H30.9799C30.8953 27.6913 30.7949 27.3871 30.6742 27.0886V24.1125C30.6742 21.6431 28.3711 19.6339 25.5403 19.6339H24.9895V22.0946C24.264 21.9009 23.515 21.8031 22.754 21.8031C22.5853 21.8031 22.4177 21.8095 22.2508 21.8188L24.3957 17.763C24.7109 17.1672 24.6569 16.4816 24.2515 15.9289C23.8461 15.3763 23.155 15.0464 22.4028 15.0464H19.3171C13.7392 15.0464 10.5698 14.026 9.34426 11.7216H11.5793V9.04493L30.338 6.42478C31.4874 6.2643 32.63 6.45136 33.5935 6.91237C32.1716 7.37843 31.0696 8.61331 30.8699 10.1355L30.8619 10.1965C30.8335 10.4134 30.8066 10.6182 30.7691 10.8221L29.5997 17.1787L29.5933 17.2344C29.5178 18.7836 30.7514 20.0919 32.3431 20.1509L36.1393 20.2176V27.9993ZM37.6354 18.7862C37.5142 18.8973 37.3811 18.9886 37.2409 19.0618C36.9731 19.2018 36.6771 19.272 36.374 19.2607L36.1393 19.2565L32.3842 19.1905C31.4107 19.1512 30.6575 18.3079 30.6926 17.3019L31.8567 10.9743C31.8982 10.749 31.9278 10.5237 31.9563 10.3057L31.9643 10.2449C32.1518 8.81575 33.3555 7.72204 34.7479 7.67472C34.8132 7.67256 34.8788 7.67176 34.9449 7.67424C35.5668 7.6973 36.1385 7.92849 36.5959 8.30029C37.2233 8.81039 37.6356 9.58562 37.6646 10.4562L37.6662 10.5043C37.6735 10.7269 37.6811 10.957 37.7012 11.1882L38.249 17.5045C38.218 17.9975 38.0009 18.4517 37.6354 18.7862Z" fill="black"/>
<path d="M24.0747 30.4297H18.7597V31.3906H24.0747V30.4297Z" fill="black"/>
<path d="M18.7458 32.6401L23.8798 33.4998L24.0875 32.556L18.9534 31.6964L18.7458 32.6401Z" fill="black"/>
<path d="M19.505 27.1946H18.0363V28.6329H19.505V27.1946Z" fill="black"/>
<path d="M26.3601 9.18286H24.5242V10.9415H26.3601V9.18286Z" fill="black"/>
</svg>
