<svg width="198" height="30" viewBox="0 0 198 30" fill="none" xmlns="http://www.w3.org/2000/svg">
<path d="M0.727997 1.79204H18.26V5.82403H11.492V28H7.316V5.82403H0.727997V1.79204Z" fill="#ED5C01"/>
<path d="M23.9483 1.79204H28.1603V28H23.9483V1.79204Z" fill="#ED5C01"/>
<path d="M58.7741 28.936L38.6501 9.42404L39.8741 9.92804L39.9821 28H35.7341V0.892036H35.9141L55.7501 20.404L54.7781 20.116L54.7061 1.79204H58.8821V28.936H58.7741Z" fill="#ED5C01"/>
<path d="M73.3811 19.504L63.6971 1.79204H68.8451L76.2251 15.904L74.9651 15.976L82.2371 1.79204H87.3851L77.5571 19.504V28H73.3811V19.504Z" fill="#ED5C01"/>
<path d="M90.5207 18.28H97.2527V21.808H90.5207V18.28Z" fill="#ED5C01"/>
<path d="M110.921 1.79204C112.913 1.79204 114.617 2.12804 116.033 2.80003C117.449 3.47203 118.529 4.43204 119.273 5.68004C120.041 6.92804 120.425 8.44004 120.425 10.216C120.425 11.248 120.257 12.28 119.921 13.312C119.609 14.344 119.105 15.28 118.409 16.12C117.737 16.96 116.825 17.644 115.673 18.172C114.545 18.676 113.153 18.928 111.497 18.928H107.717V28H103.505V1.79204H110.921ZM111.497 14.86C112.409 14.86 113.177 14.704 113.801 14.392C114.425 14.08 114.905 13.684 115.241 13.204C115.601 12.724 115.853 12.232 115.997 11.728C116.165 11.2 116.249 10.732 116.249 10.324C116.249 9.89204 116.177 9.42404 116.033 8.92004C115.889 8.39204 115.649 7.90004 115.313 7.44404C114.977 6.96404 114.509 6.58004 113.909 6.29204C113.309 5.98003 112.541 5.82403 111.605 5.82403H107.717V14.86H111.497Z" fill="#ED5C01"/>
<path d="M120.571 28L132.163 0.712036H132.415L144.007 28H139.183L131.011 7.30003L134.035 5.24804L124.711 28H120.571ZM127.843 18.28H136.807L138.247 21.844H126.583L127.843 18.28Z" fill="#ED5C01"/>
<path d="M143.02 1.93604H147.916L154.396 20.512L153.712 20.224L158.752 7.30003L160.696 12.988L153.496 29.224L143.02 1.93604ZM155.872 1.93604H160.012L167.212 20.116L166.384 19.972L172.36 1.93604H176.86L166.636 29.152L155.872 1.93604Z" fill="#ED5C01"/>
<path d="M195.892 7.12004C194.956 6.64004 193.96 6.23204 192.904 5.89604C191.848 5.53604 190.84 5.35604 189.88 5.35604C188.584 5.35604 187.552 5.64404 186.784 6.22004C186.04 6.79604 185.668 7.58804 185.668 8.59604C185.668 9.31604 185.932 9.95204 186.46 10.504C186.988 11.032 187.66 11.5 188.476 11.908C189.292 12.292 190.156 12.664 191.068 13.024C191.86 13.312 192.64 13.66 193.408 14.068C194.2 14.452 194.908 14.932 195.532 15.508C196.156 16.084 196.648 16.804 197.008 17.668C197.392 18.508 197.584 19.552 197.584 20.8C197.584 22.168 197.236 23.428 196.54 24.58C195.844 25.708 194.848 26.608 193.552 27.28C192.256 27.952 190.672 28.288 188.8 28.288C187.72 28.288 186.652 28.168 185.596 27.928C184.564 27.688 183.58 27.364 182.644 26.956C181.708 26.524 180.844 26.044 180.052 25.516L181.924 22.24C182.5 22.672 183.16 23.068 183.904 23.428C184.648 23.788 185.416 24.076 186.208 24.292C187 24.484 187.744 24.58 188.44 24.58C189.184 24.58 189.916 24.46 190.636 24.22C191.38 23.98 191.992 23.584 192.472 23.032C192.976 22.48 193.228 21.748 193.228 20.836C193.228 20.092 193.012 19.456 192.58 18.928C192.148 18.4 191.584 17.944 190.888 17.56C190.216 17.152 189.472 16.792 188.656 16.48C187.84 16.168 187 15.82 186.136 15.436C185.296 15.052 184.516 14.584 183.796 14.032C183.076 13.456 182.488 12.76 182.032 11.944C181.576 11.128 181.348 10.12 181.348 8.92004C181.348 7.48004 181.684 6.23204 182.356 5.17604C183.028 4.12004 183.952 3.28004 185.128 2.65603C186.328 2.03204 187.708 1.69604 189.268 1.64803C191.116 1.64803 192.688 1.87603 193.984 2.33203C195.304 2.76403 196.468 3.29204 197.476 3.91604L195.892 7.12004Z" fill="#ED5C01"/>
</svg>
