<svg width="137" height="213" viewBox="0 0 137 213" fill="none" xmlns="http://www.w3.org/2000/svg">
<path d="M108.552 -5.75024C108.154 -5.55186 107.757 -5.28735 107.359 -4.95671C105.768 -3.76641 104.642 -1.98097 103.316 -0.393905C100.997 2.58184 98.2799 5.16082 95.2977 7.21077C95.0989 8.79784 93.7735 10.0543 92.3818 10.0543C92.3155 11.2446 92.183 12.3687 92.1167 13.559C88.4055 18.0557 85.4896 23.4782 83.7003 29.2974C82.9713 29.3635 82.1761 29.4958 81.4471 29.628C80.0554 32.6038 78.73 35.5134 77.3383 38.4891C76.5431 38.6875 75.8804 39.3488 75.2177 40.0101C73.8922 41.3988 72.5668 42.7874 71.8379 44.639C70.9101 47.0196 71.1751 49.8631 70.2474 52.2437C69.7172 53.5001 68.9219 54.5582 68.5243 55.8146C68.193 56.8726 68.2592 58.1291 68.8557 58.9887C68.7231 59.3194 68.5243 59.5839 68.3918 59.9145C66.4699 60.9064 64.8132 62.5596 63.7528 64.7418C63.2227 65.0063 62.6262 65.2708 62.0961 65.4692C61.0357 66.9902 59.9754 68.5111 58.9151 70.032C57.921 70.0982 56.9269 70.2304 55.9329 70.2965C54.74 71.6852 53.6134 73.0739 52.4205 74.5287C53.8122 74.8593 55.1376 75.2561 56.5293 75.6529C56.6619 76.4464 56.3968 77.3061 55.8666 77.9012C55.9329 79.8189 55.9992 81.7366 56.0654 83.6543C55.6015 84.5801 55.0714 85.572 54.6075 86.4978L53.7459 88.2171C53.5471 88.68 53.2821 89.1429 53.0832 89.5397C53.0832 89.6058 53.017 89.6719 53.017 89.6719C51.3602 89.1429 49.7034 89.0768 48.0467 89.4074C48.5768 91.1267 49.1733 92.7799 49.7034 94.4993C48.1792 97.0782 46.655 99.7233 45.1308 102.302C45.8597 103.426 44.9982 105.08 43.8716 105.476C42.745 105.873 41.5521 105.344 40.4255 104.881C40.9557 107.196 40.4255 109.775 39.1001 111.56C39.8954 111.957 39.9616 113.28 39.564 114.139C39.1664 114.999 38.3711 115.528 37.7747 116.123C35.9191 117.975 34.9251 120.686 33.931 123.265C33.3346 124.918 32.7381 126.571 32.1417 128.224C30.6837 132.258 27.3702 133.382 25.6472 137.284C25.4484 137.747 25.9785 139.4 26.2436 140.656C25.9123 141.318 25.5146 141.913 25.1833 142.574C25.0507 142.64 24.9845 142.64 24.8519 142.706C23.4602 143.235 21.936 146.013 21.8697 146.013C21.8697 146.013 21.5384 147.071 21.4721 147.997L21.207 147.93C21.207 147.005 21.2733 146.079 21.3396 145.153C21.3396 144.822 21.4058 144.492 21.4058 144.161C21.5384 142.177 21.7372 140.127 22.0023 138.144C22.0686 137.747 22.0686 137.35 22.1348 137.019C22.2011 136.623 22.2674 136.226 22.2674 135.895C22.5324 133.911 22.8638 131.928 23.1289 129.944C23.2614 129.282 23.3277 128.687 23.4602 128.092C23.659 126.77 23.9241 125.381 24.1892 124.058C24.3218 123.199 24.5206 122.339 24.7194 121.479C24.8519 120.686 25.0507 119.892 25.2495 119.099C25.2495 119.033 25.2495 118.966 25.3158 118.9C25.846 116.321 26.5087 113.742 27.1051 111.163C27.1714 111.031 27.1714 110.833 27.2377 110.634C27.3702 109.973 27.569 109.378 27.7678 108.717C27.9004 108.254 28.0329 107.791 28.0992 107.328C28.298 106.534 28.5631 105.741 28.7619 104.947C29.1595 103.559 29.5571 102.236 29.9548 100.848C30.3524 99.525 30.75 98.2024 31.2139 96.8137C31.479 95.9541 31.7441 95.1605 32.0092 94.3009C32.2742 93.4412 32.5393 92.6477 32.8707 91.788C36.9132 79.885 41.8172 68.2466 47.5828 57.2033C48.4443 55.5501 49.3058 53.8969 50.1673 52.3098C50.2336 52.1776 50.2999 52.0453 50.3661 51.9792C50.6975 51.3179 51.0951 50.6566 51.4265 50.0615L52.0892 48.9373C54.4087 44.9035 56.8607 41.002 59.379 37.1666C60.5056 35.4473 61.6984 33.7941 62.8913 32.1409C63.1564 31.7441 63.4877 31.3474 63.7528 30.9506C64.5481 29.8926 65.3433 28.8345 66.1386 27.7765C68.5243 24.7346 70.9763 21.7589 73.5609 18.9815C76.0792 16.138 78.8625 13.4929 81.6459 10.9139C83.0376 9.6575 84.4956 8.4672 85.9535 7.21077C86.6825 6.61562 87.4115 6.02048 88.1404 5.49146L90.3936 3.83826C91.1889 3.30924 91.9179 2.71409 92.7131 2.2512C93.5084 1.78831 94.3036 1.25929 95.0989 0.796392C96.6894 -0.129395 98.2136 -1.12131 99.9366 -1.91484C100.666 -2.31161 101.461 -2.64224 102.19 -3.03901C102.256 -3.03901 102.322 -3.10514 102.389 -3.10514C103.184 -3.5019 104.045 -3.89867 104.907 -4.16318C106.034 -4.89059 107.293 -5.35348 108.552 -5.75024Z" fill="#189CAB"/>
<path d="M108.552 -5.75024C108.154 -5.55186 107.757 -5.28735 107.359 -4.95671C105.768 -3.76641 104.642 -1.98097 103.316 -0.393905C100.997 2.58184 98.2799 5.16082 95.2977 7.21077C95.0989 8.79784 93.7735 10.0543 92.3818 10.0543C92.3155 11.2446 92.183 12.3687 92.1167 13.559C88.4055 18.0557 85.4896 23.4782 83.7003 29.2974C82.9713 29.3635 82.1761 29.4958 81.4471 29.628C80.0554 32.6038 78.73 35.5134 77.3383 38.4891C76.5431 38.6875 75.8804 39.3488 75.2177 40.0101C73.8922 41.3988 72.5668 42.7874 71.8379 44.639C70.9101 47.0196 71.1751 49.8631 70.2474 52.2437C69.7172 53.5001 68.9219 54.5582 68.5243 55.8146C68.193 56.8726 68.2592 58.1291 68.8557 58.9887C68.7231 59.3194 68.5243 59.5839 68.3918 59.9145C66.4699 60.9064 64.8132 62.5596 63.7528 64.7418C63.2227 65.0063 62.6262 65.2708 62.0961 65.4692C61.0357 66.9902 59.9754 68.5111 58.9151 70.032C57.921 70.0982 56.9269 70.2304 55.9329 70.2965C54.74 71.6852 53.6134 73.0739 52.4205 74.5287C53.8122 74.8593 55.1376 75.2561 56.5293 75.6529C56.6619 76.4464 56.3968 77.3061 55.8666 77.9012C55.9329 79.8189 55.9992 81.7366 56.0654 83.6543C55.6015 84.5801 55.0714 85.572 54.6075 86.4978L53.7459 88.2171C53.5471 88.68 53.2821 89.1429 53.0832 89.5397C53.0832 89.6058 53.017 89.6719 53.017 89.6719C51.3602 89.1429 49.7034 89.0768 48.0467 89.4074C48.5768 91.1267 49.1733 92.7799 49.7034 94.4993C48.1792 97.0782 46.655 99.7233 45.1308 102.302C45.8597 103.426 44.9982 105.08 43.8716 105.476C42.745 105.873 41.5521 105.344 40.4255 104.881C40.9557 107.196 40.4255 109.775 39.1001 111.56C39.8954 111.957 39.9616 113.28 39.564 114.139C39.1664 114.999 38.3711 115.528 37.7747 116.123C35.9191 117.975 34.9251 120.686 33.931 123.265C33.3346 124.918 32.7381 126.571 32.1417 128.224C30.6837 132.258 27.3702 133.382 25.6472 137.284C25.4484 137.747 25.9785 139.4 26.2436 140.656C25.9123 141.318 25.5146 141.913 25.1833 142.574C25.0507 142.64 24.9845 142.64 24.8519 142.706C23.4602 143.235 21.936 146.013 21.8697 146.013C21.8697 146.013 21.5384 147.071 21.4721 147.997L21.207 147.93C21.207 147.005 21.2733 146.079 21.3396 145.153C21.3396 144.822 21.4058 144.492 21.4058 144.161C21.5384 142.177 21.7372 140.127 22.0023 138.144C22.0686 137.747 22.0686 137.35 22.1348 137.019C22.0686 136.027 22.0023 135.035 21.8035 134.044C21.6047 133.184 21.4058 132.324 21.5384 131.398C21.7372 130.076 22.665 129.084 23.4602 128.026C23.7253 126.703 23.9241 125.315 24.1892 123.992C24.3218 123.133 24.5206 122.273 24.7194 121.413C24.8519 120.62 25.0507 119.826 25.2495 119.033C25.2495 118.966 25.2495 118.9 25.3158 118.834C25.0507 117.446 24.4543 116.189 23.7253 115.065C24.6531 113.544 25.846 112.155 27.1714 111.097C27.2377 110.965 27.2377 110.767 27.3039 110.568C27.4365 109.907 27.6353 109.312 27.8341 108.651C27.9666 108.188 28.0992 107.725 28.1655 107.262C28.3643 106.468 28.6294 105.675 28.8282 104.881C28.1655 101.972 29.1595 98.5992 31.2139 96.8137C31.479 95.9541 31.7441 95.1605 32.0092 94.3009C32.2742 93.4412 32.5393 92.6477 32.8707 91.788C32.7381 91.259 32.7381 90.6639 32.7381 90.1348C33.0032 86.8946 33.9973 83.7866 35.654 81.1415C36.383 79.9512 37.3108 78.8931 37.841 77.5706C39.1001 74.661 38.7025 70.9578 40.4918 68.445C41.2208 67.453 42.2148 66.7256 42.6787 65.6015C43.6065 63.5515 42.8776 60.5758 44.4681 59.2532C44.9319 58.8565 45.5284 58.7242 45.926 58.1952C46.5887 57.2033 45.8597 55.6823 46.1911 54.492C46.655 52.8388 48.6431 52.7727 50.1673 52.3098C50.2336 52.1776 50.2999 52.0453 50.3661 51.9792C50.6975 51.3179 51.0951 50.6566 51.4265 50.0615L52.0892 48.9373V48.8712C52.2217 46.6228 53.8785 44.9035 55.1376 43.2503C56.3968 41.531 57.3908 38.952 56.2642 37.1005C57.0595 37.5634 57.9873 36.5714 58.3849 35.5795C58.7825 34.5876 59.0476 33.3973 59.8429 32.9344C60.5056 32.5377 61.2345 32.736 61.9635 32.6038C62.3611 32.5377 62.6925 32.3393 62.9576 32.1409C63.2227 31.7441 63.554 31.3474 63.8191 30.9506C64.4155 29.6942 64.4155 28.041 63.4877 27.0491C65.4096 26.52 66.8013 24.1394 66.4699 21.8911C67.7953 23.0153 69.5184 21.3621 70.4462 19.8412C72.5668 16.6009 74.6875 13.4268 76.8082 10.1865C77.2721 9.52524 77.7359 8.79784 78.3987 8.4672C79.6578 7.80592 81.2483 8.59945 82.4412 7.80592C83.0376 7.40916 83.369 6.68175 83.7666 6.02048C86.2849 2.2512 91.2552 2.31733 94.635 -0.393905C95.8941 -1.38582 96.8882 -2.84063 98.2136 -3.70029C99.539 -4.62607 101.328 -4.95671 102.521 -3.76641C102.389 -3.5019 102.322 -3.30352 102.19 -3.10514C102.256 -3.10514 102.322 -3.17127 102.389 -3.17127C103.184 -3.56803 104.045 -3.9648 104.907 -4.22931C106.034 -4.89059 107.293 -5.35348 108.552 -5.75024Z" fill="#189CAB"/>
<path d="M196.691 36.7698C196.294 36.9682 195.896 37.2327 195.499 37.5634C193.908 38.7537 192.781 40.5391 191.522 42.1262C189.203 45.1019 186.486 47.6809 183.504 49.7309C183.305 51.3179 181.979 52.5743 180.588 52.5743C180.455 53.7646 180.389 54.8888 180.323 56.0791C176.611 60.5758 173.696 65.9983 171.906 71.8175C171.177 71.8836 170.382 72.0159 169.653 72.082C168.261 75.0577 166.936 77.9674 165.544 80.9431C164.749 81.1415 164.086 81.8027 163.424 82.464C162.098 83.8527 160.773 85.2414 160.044 87.1591C159.116 89.5397 159.381 92.3832 158.453 94.7638C157.923 96.0202 157.128 97.0782 156.73 98.3347C156.399 99.3927 156.465 100.649 156.995 101.509C156.863 101.839 156.664 102.104 156.531 102.435C154.61 103.36 152.953 105.08 151.892 107.262C151.362 107.526 150.766 107.725 150.236 107.989C149.175 109.51 148.115 111.031 147.055 112.552C146.061 112.618 145.067 112.75 144.073 112.817C142.88 114.205 141.753 115.594 140.56 117.049C141.952 117.379 143.277 117.776 144.669 118.107C144.802 118.9 144.536 119.76 144.006 120.355C144.073 122.273 144.139 124.191 144.205 126.108C143.741 127.1 143.211 128.026 142.747 129.018C142.018 129.878 141.422 130.936 141.223 132.06C141.223 132.126 141.157 132.192 141.157 132.258C139.5 131.729 137.843 131.663 136.186 131.994C136.716 133.713 137.313 135.366 137.843 137.085C136.319 139.664 134.795 142.31 133.27 144.889C133.999 146.013 133.138 147.666 132.011 148.063C130.885 148.459 129.626 147.997 128.565 147.467C129.095 149.782 128.565 152.361 127.24 154.146C128.035 154.543 128.101 155.866 127.704 156.725C127.306 157.585 126.511 158.114 125.914 158.709C124.059 160.561 123.065 163.272 122.071 165.851C121.474 167.504 120.878 169.157 120.281 170.811C118.823 174.844 115.51 175.969 113.787 179.87C113.588 180.333 114.118 181.986 114.383 183.243C114.052 183.904 113.654 184.499 113.257 185.16C113.19 185.226 113.058 185.226 112.925 185.292C111.534 185.822 110.009 188.599 109.943 188.599C109.943 188.599 109.612 189.657 109.545 190.583L109.28 190.517C109.28 189.591 109.347 188.665 109.413 187.739C109.413 187.409 109.479 187.012 109.479 186.681C109.479 186.549 109.479 186.417 109.479 186.218C109.479 185.888 109.545 185.557 109.545 185.16C109.678 183.639 109.811 182.184 110.009 180.664C110.076 180.267 110.076 179.87 110.142 179.539C110.208 179.143 110.208 178.746 110.274 178.415C110.54 176.431 110.871 174.448 111.136 172.464C111.269 171.802 111.335 171.207 111.467 170.612C111.732 169.29 111.931 167.901 112.196 166.578C112.395 165.719 112.528 164.859 112.726 163.999C112.859 163.206 113.058 162.412 113.257 161.619C113.257 161.553 113.257 161.487 113.323 161.42C113.853 158.841 114.516 156.262 115.112 153.683C115.178 153.485 115.178 153.353 115.245 153.154C115.377 152.493 115.576 151.832 115.775 151.171C115.907 150.642 116.04 150.113 116.173 149.584C116.239 149.319 116.305 148.988 116.438 148.724C116.902 146.938 117.432 145.219 117.962 143.434C118.558 141.516 119.088 139.664 119.751 137.813C120.083 136.887 120.348 135.961 120.679 135.035C124.788 122.868 129.692 111.097 135.59 99.8556C136.451 98.1363 137.379 96.417 138.373 94.6976C138.837 93.9041 139.301 93.0444 139.699 92.2509C139.765 92.1848 139.765 92.1187 139.831 92.0525C139.897 91.8541 140.03 91.7219 140.096 91.5235C142.416 87.4897 144.868 83.5882 147.386 79.7528C148.513 78.0335 149.706 76.3803 150.898 74.7271C151.163 74.3303 151.495 73.9336 151.76 73.5368C152.555 72.4788 153.35 71.4207 154.146 70.3627C156.531 67.3208 158.917 64.3451 161.568 61.5677C164.086 58.7242 166.87 56.0791 169.653 53.5001C171.111 52.2437 172.503 51.0534 173.961 49.797C174.69 49.2018 175.419 48.6067 176.214 48.0777L178.467 46.4245C179.262 45.8954 179.991 45.3003 180.786 44.8374C181.582 44.3745 182.377 43.8455 183.172 43.3826C184.763 42.4568 186.287 41.4649 188.01 40.6714C188.739 40.2746 189.534 39.944 190.263 39.5472C190.329 39.5472 190.396 39.4811 190.462 39.4811C191.257 39.0843 192.119 38.6875 192.98 38.423C194.173 37.5634 195.432 37.1666 196.691 36.7698Z" fill="#189CAB"/>
<path d="M196.691 36.7698C196.294 36.9682 195.896 37.2327 195.499 37.5634C193.908 38.7537 192.781 40.5391 191.522 42.1262C189.203 45.1019 186.486 47.6809 183.504 49.7309C183.305 51.3179 181.979 52.5743 180.588 52.5743C180.455 53.7646 180.389 54.8888 180.323 56.0791C176.611 60.5758 173.696 65.9983 171.906 71.8175C171.177 71.8836 170.382 72.0159 169.653 72.082C168.261 75.0577 166.936 77.9674 165.544 80.9431C164.749 81.1415 164.086 81.8027 163.424 82.464C162.098 83.8527 160.773 85.2414 160.044 87.1591C159.116 89.5397 159.381 92.3832 158.453 94.7638C157.923 96.0202 157.128 97.0782 156.73 98.3347C156.399 99.3927 156.465 100.649 156.995 101.509C156.863 101.839 156.664 102.104 156.531 102.435C154.61 103.36 152.953 105.08 151.892 107.262C151.362 107.526 150.766 107.725 150.236 107.989C149.175 109.51 148.115 111.031 147.055 112.552C146.061 112.618 145.067 112.75 144.073 112.817C142.88 114.205 141.753 115.594 140.56 117.049C141.952 117.379 143.277 117.776 144.669 118.107C144.802 118.9 144.536 119.76 144.006 120.355C144.073 122.273 144.139 124.191 144.205 126.108C143.741 127.1 143.211 128.026 142.747 129.018C142.018 129.878 141.422 130.936 141.223 132.06C141.223 132.126 141.157 132.192 141.157 132.258C139.5 131.729 137.843 131.663 136.186 131.994C136.716 133.713 137.313 135.366 137.843 137.085C136.319 139.664 134.795 142.31 133.27 144.889C133.999 146.013 133.138 147.666 132.011 148.063C130.885 148.459 129.626 147.997 128.565 147.467C129.095 149.782 128.565 152.361 127.24 154.146C128.035 154.543 128.101 155.866 127.704 156.725C127.306 157.585 126.511 158.114 125.914 158.709C124.059 160.561 123.065 163.272 122.071 165.851C121.474 167.504 120.878 169.157 120.281 170.811C118.823 174.844 115.51 175.969 113.787 179.87C113.588 180.333 114.118 181.986 114.383 183.243C114.052 183.904 113.654 184.499 113.257 185.16C113.19 185.226 113.058 185.226 112.925 185.292C111.534 185.822 110.009 188.599 109.943 188.599C109.943 188.599 109.612 189.657 109.545 190.583L109.28 190.517C109.28 189.591 109.347 188.665 109.413 187.739C109.413 187.409 109.479 187.012 109.479 186.681C109.479 186.549 109.479 186.417 109.479 186.218C109.479 185.888 109.545 185.557 109.545 185.16C109.678 183.639 109.811 182.184 110.009 180.664C110.076 180.267 110.076 179.87 110.142 179.539C110.076 178.547 110.009 177.556 109.811 176.564C109.612 175.704 109.413 174.778 109.545 173.919C109.744 172.53 110.738 171.604 111.467 170.546C111.732 169.223 111.931 167.835 112.196 166.512C112.395 165.653 112.528 164.793 112.726 163.933C112.859 163.14 113.058 162.346 113.257 161.553C113.257 161.487 113.257 161.42 113.323 161.354C112.992 159.966 112.461 158.643 111.732 157.585C112.66 156.064 113.853 154.675 115.178 153.617C115.245 153.419 115.245 153.287 115.311 153.088C115.444 152.427 115.642 151.766 115.841 151.105C115.974 150.575 116.106 150.046 116.239 149.517C116.305 149.253 116.371 148.922 116.504 148.658C116.636 148.261 116.703 147.864 116.835 147.467C116.173 144.558 117.167 141.185 119.221 139.4C119.42 138.871 119.552 138.276 119.751 137.747C120.083 136.821 120.348 135.895 120.679 134.969C120.745 134.771 120.811 134.573 120.878 134.374C120.745 133.845 120.745 133.25 120.745 132.721C121.01 129.481 122.004 126.373 123.661 123.728C124.39 122.537 125.318 121.479 125.848 120.157C127.107 117.247 126.71 113.544 128.433 111.031C129.162 110.039 130.156 109.312 130.62 108.188C131.547 106.204 130.818 103.162 132.409 101.839C132.873 101.443 133.469 101.31 133.867 100.781C134.53 99.7895 133.801 98.2685 134.132 97.0782C134.596 95.425 136.584 95.3589 138.108 94.896C138.174 94.8299 138.174 94.7638 138.241 94.6315C138.705 93.838 139.168 92.9783 139.566 92.1848C139.632 92.1187 139.632 92.0525 139.699 91.9864C139.765 91.788 139.897 91.6558 139.964 91.4574V91.3913C140.096 89.1429 141.753 87.4897 143.012 85.7704C144.271 84.0511 145.332 81.4721 144.139 79.6867C144.934 80.1496 145.862 79.1576 146.259 78.1657C146.657 77.1738 146.922 75.9835 147.717 75.5206C148.38 75.1239 149.109 75.3222 149.838 75.19C150.236 75.1239 150.567 74.9255 150.898 74.7271C151.163 74.3303 151.495 73.9336 151.76 73.5368C152.356 72.2804 152.356 70.6272 151.429 69.6353C153.35 69.1062 154.742 66.7257 154.411 64.4773C155.736 65.6015 157.459 63.9483 158.453 62.4274C160.574 59.1871 162.695 56.013 164.815 52.7727C165.279 52.1114 165.743 51.384 166.406 51.0534C167.665 50.3921 169.255 51.1857 170.448 50.3921C171.045 49.9954 171.376 49.268 171.774 48.6067C174.292 44.8374 179.262 44.9035 182.642 42.1262C183.901 41.1343 184.895 39.7456 186.221 38.8198C187.546 37.894 189.335 37.5634 190.528 38.7537C190.396 38.952 190.329 39.2166 190.197 39.4149C190.263 39.4149 190.329 39.3488 190.396 39.3488C191.191 38.952 192.053 38.5553 192.914 38.2908C194.173 37.5634 195.432 37.1666 196.691 36.7698Z" fill="#189CAB"/>
<path d="M56.1976 7.01239C55.9325 7.14465 55.6674 7.34303 55.4023 7.54141C54.4083 8.33494 53.613 9.45911 52.8178 10.451C51.2935 12.3687 49.5705 14.0219 47.6486 15.3445C47.5161 16.3364 46.6546 17.196 45.7931 17.196C45.7268 17.9235 45.6605 18.6509 45.5942 19.4444C43.2085 22.354 41.3529 25.7926 40.16 29.5619C39.6962 29.628 39.166 29.6942 38.7021 29.7603C37.8406 31.678 36.9128 33.5296 36.0513 35.4473C35.5211 35.5795 35.1235 35.9763 34.7259 36.4392C33.8643 37.2989 33.0028 38.2246 32.5389 39.4149C31.9425 40.9359 32.1413 42.7874 31.5449 44.3084C31.2135 45.1019 30.6833 45.7632 30.4183 46.6228C30.2194 47.2841 30.2194 48.1438 30.6171 48.6728C30.4845 48.8712 30.4183 49.0696 30.2857 49.268C29.0266 49.8631 27.9662 50.9873 27.3035 52.376C26.9722 52.5082 26.5746 52.7066 26.2432 52.8388C25.5805 53.8308 24.8515 54.8227 24.1888 55.7485C23.5261 55.8146 22.9297 55.8807 22.267 55.9468C21.538 56.8726 20.7427 57.7323 20.0138 58.6581C20.8753 58.9226 21.8031 59.121 22.6646 59.3855C22.7309 59.9145 22.5983 60.4435 22.267 60.8403L22.3995 64.5434C22.0681 65.1386 21.7368 65.7337 21.4717 66.395C21.0078 66.924 20.6102 67.5853 20.4776 68.3788C20.4776 68.3788 20.4776 68.445 20.4114 68.5111C19.351 68.1805 18.2907 68.1143 17.2304 68.3127C17.5617 69.4369 17.9594 70.4949 18.2907 71.553C17.2967 73.2062 16.3026 74.9255 15.3748 76.5787C15.8387 77.3061 15.3085 78.3641 14.5796 78.6286C13.8506 78.8931 13.0553 78.5625 12.3264 78.2319C12.6577 79.6867 12.3264 81.3399 11.4648 82.5302C11.995 82.7947 11.995 83.6543 11.7299 84.1833C11.4648 84.7124 11.0009 85.043 10.537 85.5059C9.34417 86.6962 8.68146 88.4155 8.08503 90.0687C7.6874 91.1267 7.28978 92.1848 6.95842 93.2428C6.03063 95.8218 3.90997 96.5492 2.78337 99.0621C2.65083 99.3266 2.98218 100.385 3.18099 101.178C2.91591 101.575 2.7171 101.972 2.45202 102.435C2.38575 102.435 2.31947 102.501 2.2532 102.501C1.39169 102.831 0.397624 104.617 0.331354 104.617C0.331354 104.617 0.132541 105.278 0.0662707 105.939L0 105.807C0 105.146 0.0662707 104.485 0.0662707 103.823C0.0662707 103.493 0.132541 103.162 0.132541 102.831C0.132541 102.501 0.198812 102.104 0.198812 101.773C0.198812 101.443 0.265083 101.178 0.265083 100.848C0.265083 100.649 0.331354 100.451 0.331354 100.252C0.331354 99.9879 0.397624 99.7895 0.397624 99.525C0.397624 99.2604 0.463895 98.9298 0.530166 98.6653C0.530166 98.4008 0.596436 98.1363 0.596436 97.9379C0.728978 96.6153 0.92779 95.3589 1.19287 94.1025C1.25914 93.7057 1.32541 93.309 1.39168 92.9122C1.52423 92.0525 1.72304 91.1929 1.85558 90.3332C2.05439 89.209 2.31947 88.0849 2.51829 87.0268C2.84964 85.3736 3.24726 83.7205 3.71116 82.0673C3.8437 81.406 4.04251 80.7447 4.24133 80.0834C4.44014 79.4222 4.57268 78.7609 4.77149 78.0996C5.03657 77.2399 5.30166 76.3803 5.50047 75.4545C5.76555 74.5948 6.03063 73.7352 6.29572 72.8755C6.62707 71.8175 6.95842 70.6933 7.35605 69.6353C9.94061 61.9645 13.1216 54.5582 16.7665 47.4164C17.2967 46.3583 17.8931 45.3003 18.4233 44.2423C18.4895 44.1761 18.5558 44.0439 18.5558 43.9777C18.8209 43.5148 19.0197 43.1181 19.2848 42.6552C19.4173 42.4568 19.4836 42.2584 19.6161 42.06C21.0741 39.4811 22.6646 36.9682 24.3214 34.5215C25.0503 33.3973 25.7793 32.3393 26.5746 31.2812C26.7734 31.0167 26.9722 30.7522 27.1047 30.4877C27.6349 29.8264 28.0988 29.099 28.6289 28.4377C30.1532 26.52 31.7437 24.6023 33.4004 22.7508C35.0572 20.8992 36.7802 19.246 38.5696 17.5267C39.4973 16.7332 40.4251 15.9396 41.3529 15.1461C41.8168 14.7493 42.2807 14.4187 42.8109 14.0219L44.2688 12.9639C44.799 12.6332 45.2629 12.2365 45.7268 11.9058C46.257 11.5752 46.7209 11.2446 47.251 10.98C48.2451 10.3849 49.2391 9.72362 50.3657 9.26073C50.8296 8.99622 51.3598 8.79784 51.8237 8.53333C51.89 8.53333 51.89 8.4672 51.9562 8.4672C52.4864 8.20269 53.0166 7.93818 53.5467 7.80592C54.5408 7.60754 55.4023 7.2769 56.1976 7.01239Z" fill="#189CAB"/>
<path d="M56.1976 7.01239C55.9325 7.14465 55.6674 7.34303 55.4023 7.54141C54.4083 8.33494 53.613 9.45911 52.8178 10.451C51.2935 12.3687 49.5705 14.0219 47.6486 15.3445C47.5161 16.3364 46.6546 17.196 45.7931 17.196C45.7268 17.9235 45.6605 18.6509 45.5942 19.4444C43.2085 22.354 41.3529 25.7926 40.16 29.5619C39.6962 29.628 39.166 29.6942 38.7021 29.7603C37.8406 31.678 36.9128 33.5296 36.0513 35.4473C35.5211 35.5795 35.1235 35.9763 34.7259 36.4392C33.8643 37.2989 33.0028 38.2246 32.5389 39.4149C31.9425 40.9359 32.1413 42.7874 31.5449 44.3084C31.2135 45.1019 30.6833 45.7632 30.4183 46.6228C30.2194 47.2841 30.2194 48.1438 30.6171 48.6728C30.4845 48.8712 30.4183 49.0696 30.2857 49.268C29.0266 49.8631 27.9662 50.9873 27.3035 52.376C26.9722 52.5082 26.5746 52.7066 26.2432 52.8388C25.5805 53.8308 24.8515 54.8227 24.1888 55.7485C23.5261 55.8146 22.9297 55.8807 22.267 55.9468C21.538 56.8726 20.7427 57.7323 20.0138 58.6581C20.8753 58.9226 21.8031 59.121 22.6646 59.3855C22.7309 59.9145 22.5983 60.4435 22.267 60.8403L22.3995 64.5434C22.0681 65.1386 21.7368 65.7337 21.4717 66.395C21.0078 66.924 20.6102 67.5853 20.4776 68.3788C20.4776 68.3788 20.4776 68.445 20.4114 68.5111C19.351 68.1805 18.2907 68.1143 17.2304 68.3127C17.5617 69.4369 17.9594 70.4949 18.2907 71.553C17.2967 73.2062 16.3026 74.9255 15.3748 76.5787C15.8387 77.3061 15.3085 78.3641 14.5796 78.6286C13.8506 78.8931 13.0553 78.5625 12.3264 78.2319C12.6577 79.6867 12.3264 81.3399 11.4648 82.5302C11.995 82.7947 11.995 83.6543 11.7299 84.1833C11.4648 84.7124 11.0009 85.043 10.537 85.5059C9.34417 86.6962 8.68146 88.4155 8.08503 90.0687C7.6874 91.1267 7.28978 92.1848 6.95842 93.2428C6.03063 95.8218 3.90997 96.5492 2.78337 99.0621C2.65083 99.3266 2.98218 100.385 3.18099 101.178C2.91591 101.575 2.7171 101.972 2.45202 102.435C2.38575 102.435 2.31947 102.501 2.2532 102.501C1.39169 102.831 0.397624 104.617 0.331354 104.617C0.331354 104.617 0.132541 105.278 0.0662707 105.939L0 105.807C0 105.146 0.0662707 104.485 0.0662707 103.823C0.0662707 103.493 0.132541 103.162 0.132541 102.831C0.132541 102.501 0.198812 102.104 0.198812 101.773C0.198812 101.443 0.265083 101.178 0.265083 100.848C0.265083 100.649 0.331354 100.451 0.331354 100.252C0.331354 99.9879 0.397624 99.7895 0.397624 99.525C0.397624 99.2604 0.463895 98.9298 0.530166 98.6653C0.463895 98.004 0.397624 97.3427 0.331354 96.7476C0.198812 96.2186 0.0662707 95.6234 0.198812 95.0944C0.331354 94.2347 0.92779 93.5735 1.45796 92.9122C1.5905 92.0525 1.78931 91.1929 1.92185 90.3332C2.12066 89.209 2.38575 88.0849 2.58456 87.0268C2.38575 86.1672 2.05439 85.3075 1.52423 84.5801C2.12066 83.5882 2.84964 82.7285 3.71116 82.0673C3.8437 81.406 4.04251 80.7447 4.24133 80.0834C4.44014 79.4222 4.57268 78.7609 4.77149 78.0996C4.37387 76.248 4.9703 74.0658 6.29572 72.8755C6.62707 71.8175 6.95842 70.6933 7.35605 69.6353C7.22351 69.3046 7.28978 68.9079 7.28978 68.5772C7.42232 66.5273 8.08503 64.4773 9.14536 62.8241C9.60925 62.0306 10.2057 61.3693 10.537 60.5096C11.3323 58.6581 11.0672 56.2775 12.1938 54.6243C12.6577 53.963 13.3204 53.5001 13.6518 52.7727C14.2482 51.4502 13.7843 49.5325 14.8446 48.6728C15.176 48.4083 15.5073 48.3422 15.7724 48.0115C16.2363 47.3503 15.7062 46.3583 15.905 45.6309C16.2363 44.5729 17.4955 44.5729 18.4233 44.2423C18.4895 44.1761 18.5558 44.0439 18.5558 43.9777C18.8209 43.5148 19.0197 43.1181 19.2848 42.6552C19.4173 42.4568 19.4836 42.2584 19.6161 42.06C19.6161 42.06 19.6161 42.06 19.6161 41.9939C19.6824 40.5391 20.7427 39.4811 21.538 38.3569C22.3332 37.2327 22.9959 35.5795 22.267 34.3892C22.7971 34.7199 23.3936 34.0586 23.5924 33.3973C23.7912 32.736 23.99 32.0086 24.5202 31.678C24.9178 31.4135 25.3817 31.5457 25.8456 31.4796C26.1107 31.4135 26.3095 31.3474 26.5083 31.149C26.7071 30.8845 26.9059 30.62 27.0384 30.3554C27.4361 29.5619 27.4361 28.5039 26.8396 27.8426C28.0988 27.512 28.9603 25.991 28.7615 24.5362C29.623 25.2636 30.6833 24.2056 31.346 23.2137C32.7377 21.1637 34.0631 19.0476 35.4548 16.9977C35.7199 16.5348 36.0513 16.138 36.4489 15.8735C37.2441 15.4767 38.3045 15.9396 39.0334 15.4767C39.4311 15.2122 39.6299 14.7493 39.895 14.3526C41.5517 11.9058 44.7327 11.972 46.8534 10.1865C47.6486 9.52524 48.3113 8.66558 49.1729 8.07043C50.0344 7.47529 51.161 7.2769 51.89 8.0043C51.8237 8.13656 51.7574 8.33494 51.6912 8.4672C51.7574 8.4672 51.7574 8.40107 51.8237 8.40107C52.3539 8.13656 52.884 7.87205 53.4142 7.7398C54.5408 7.60754 55.4023 7.2769 56.1976 7.01239Z" fill="#189CAB"/>
<path d="M178.931 -15.6033C175.087 -14.0823 171.774 -10.776 168.858 -7.33731C158.984 4.30115 151.628 18.5847 141.223 29.628C140.295 35.9763 136.584 41.7955 131.614 44.5729C129.096 45.697 126.312 45.8954 123.661 45.1019C124.788 46.6228 125.848 48.2099 126.975 49.7308C124.921 50.326 124.854 53.6324 124.854 56.0791C124.788 65.2047 118.824 72.611 113.986 79.8189C108.817 87.4897 104.575 95.8879 100.334 104.286C99.2738 106.402 98.2135 108.452 97.1531 110.568C94.3698 116.123 90.5923 122.339 85.0256 122.604C83.6339 122.67 82.1759 122.339 80.9168 122.934C79.6577 123.529 78.7961 125.645 79.7902 126.77C83.0375 125.579 85.8871 129.811 86.7486 133.647C87.6101 137.085 86.8149 142.243 83.7002 142.243C83.5676 143.698 83.4351 145.153 83.3025 146.542C79.26 150.509 75.2175 154.543 71.175 158.511C71.9703 161.288 71.8377 164.396 70.8436 167.107C69.0543 169.091 65.8733 169.025 64.1503 166.909C64.084 169.223 64.084 171.472 64.0178 173.786C63.0237 173.919 62.1622 174.448 61.4332 175.175C62.1622 176.233 62.9574 177.291 63.6864 178.349C61.632 182.846 59.5114 187.409 57.457 191.905C55.8665 195.344 54.276 198.783 52.3541 201.957C51.3601 203.544 49.8358 204.8 48.1791 203.94C48.1791 206.387 48.1791 209.032 48.8418 211.215C48.5104 211.81 48.1128 212.339 47.7814 212.934L46.9199 212.603C47.0525 207.115 47.5826 201.692 48.2453 196.336C48.1791 194.815 48.0465 193.294 47.7152 191.839C47.4501 190.583 47.1187 189.26 47.3175 187.938C47.5826 186.02 48.908 184.631 50.0346 183.11C49.1731 182.581 48.1791 182.251 47.2513 182.184C49.3057 178.217 50.6974 173.786 51.2938 169.157C51.4263 168.099 51.4926 167.041 51.8902 166.049C51.4926 165.19 51.0287 164.33 50.4985 163.536C51.824 161.354 53.4145 159.437 55.27 157.916C55.4026 155.535 54.8061 153.154 53.4807 151.303C54.4748 151.038 55.4688 150.708 56.4629 150.443C56.5954 149.187 57.1256 148.063 57.722 147.005C57.3907 143.566 58.5173 139.863 60.638 137.416C60.7705 134.837 60.3729 132.192 59.5114 129.811C62.2285 129.745 63.6201 125.778 63.3551 122.67C63.09 119.495 61.8971 116.387 62.4935 113.279C64.4817 113.742 66.7349 112.288 67.4638 110.105C67.7952 109.047 67.8615 107.791 68.1266 106.667C68.8555 103.757 70.9762 101.839 73.2294 99.9878C73.627 97.9379 74.1572 96.0202 75.2838 94.367C76.3441 92.9122 77.8021 91.788 78.5973 90.1348C79.989 87.1591 78.8624 82.6624 81.3144 80.7447C81.5795 80.5463 81.8446 80.3479 82.1759 80.2157C82.2422 80.1496 82.3085 80.0173 82.3085 79.9512C82.7061 79.0915 82.7724 78.0335 82.9712 77.0415C83.1037 76.3141 83.3688 75.5867 83.7002 74.9916C83.7002 74.5287 83.7002 74.0658 83.8327 73.669C84.4954 71.2223 87.4113 71.1562 89.6645 70.4288C88.4054 68.5111 87.2788 66.3289 87.4113 64.0144C87.6101 61.4354 90.4598 59.2532 92.1165 60.9725C95.2975 58.7242 97.1531 54.2936 96.7555 49.9953C97.6833 50.1276 98.6111 49.797 99.34 49.2679C99.2075 48.7389 99.0087 48.276 98.7436 47.8131C99.8702 48.4744 101.063 47.2841 101.726 45.9616C102.123 44.639 102.19 43.1842 101.66 41.9278C102.389 42.06 103.117 42.06 103.846 41.8616C103.913 41.7955 103.979 41.7294 104.112 41.6633C104.377 41.4649 104.708 41.3988 105.039 41.3326C106.1 40.7375 106.961 39.8117 107.491 38.5553C108.287 38.6875 109.082 38.7536 109.943 38.8859C110.01 38.8198 110.01 38.7536 110.076 38.6875C110.142 38.6214 110.142 38.5553 110.208 38.423C110.01 37.4311 109.811 36.4392 109.612 35.4473C109.016 32.6699 108.485 29.5619 109.612 27.0491C110.805 24.4039 113.323 23.0814 115.51 21.4943C121.276 17.1299 124.655 9.72362 129.56 4.16889C131.813 1.58992 134.397 -0.658422 137.247 -2.37774C139.169 -3.56804 141.289 -4.49382 143.41 -4.29544C144.47 -4.16319 145.398 -3.76642 146.26 -3.10515C149.573 -4.55995 153.218 -5.55187 156.068 -7.86633C157.923 -9.38727 159.448 -11.4372 161.369 -12.8259C163.291 -14.2146 166.008 -14.6775 167.731 -12.892C167.599 -12.5614 167.4 -12.2308 167.201 -11.834C167.268 -11.9001 167.4 -11.9001 167.466 -11.9662C168.725 -12.4953 169.918 -13.1565 171.178 -13.5533C173.696 -14.4791 176.214 -15.3388 178.799 -16.0662L178.931 -15.6033Z" fill="#189CAB"/>
</svg>
