<svg width="35" height="37" viewBox="0 0 35 37" fill="none" xmlns="http://www.w3.org/2000/svg">
<path d="M17.528 36.2031C27.1778 36.2031 35.0005 28.0987 35.0005 18.1015C35.0005 8.10433 27.1778 0 17.528 0C7.87827 0 0.055603 8.10433 0.055603 18.1015C0.055603 28.0987 7.87827 36.2031 17.528 36.2031Z" fill="white"/>
<path d="M27.2224 11.9026C26.624 12.1506 25.906 12.3985 25.3076 12.5225C25.6666 12.5225 26.0256 11.9026 26.265 11.6546C26.5043 11.2827 26.7437 10.9107 26.8634 10.4148V10.2908H26.7437C26.0256 10.6628 25.3076 11.0347 24.4699 11.1587C24.3502 11.1587 24.3502 11.1587 24.3502 11.1587C24.2305 11.0347 24.2305 11.0347 24.1108 10.9107C23.7518 10.6628 23.3928 10.4148 23.0338 10.1668C22.5551 9.91888 21.9567 9.7949 21.3583 9.91888C20.76 9.91888 20.2813 10.1668 19.8026 10.4148C19.3239 10.6628 18.8452 11.0347 18.4862 11.5307C18.1271 12.0266 17.8878 12.5225 17.7681 13.1424C17.6484 13.7624 17.6484 14.2583 17.7681 14.8782C17.7681 15.0022 17.7681 15.0022 17.6484 15.0022C14.5369 14.5063 11.9041 13.3904 9.74995 10.9107C9.63027 10.7868 9.63028 10.7868 9.5106 10.9107C8.55321 12.3985 9.0319 14.6302 10.2286 15.7461C10.3483 15.8701 10.5877 15.9941 10.7073 16.242C10.5877 16.242 9.86962 16.118 9.15158 15.7461C9.0319 15.7461 9.0319 15.7461 9.0319 15.8701C9.0319 15.9941 9.0319 16.118 9.0319 16.366C9.15158 17.8538 10.2286 19.2176 11.5451 19.7135C11.6647 19.8375 11.9041 19.8375 12.0238 19.8375C11.6647 19.9615 11.4254 19.9615 10.5877 19.8375C10.468 19.8375 10.468 19.8375 10.468 19.9615C11.0664 21.8213 12.5025 22.3172 13.5795 22.6891C13.6992 22.6891 13.8189 22.6891 14.0582 22.6891C13.6992 23.1851 12.5025 23.681 11.9041 23.805C10.827 24.1769 9.74995 24.3009 8.67288 24.1769C8.5532 24.1769 8.43353 24.1769 8.43353 24.1769V24.3009C8.67288 24.4249 8.91223 24.5489 9.15158 24.6729C9.86962 25.0448 10.5877 25.4168 11.3057 25.5407C15.255 26.6566 19.5632 25.7887 22.5551 22.8131C24.8289 20.4574 25.6666 17.2339 25.6666 13.8863C25.6666 13.7624 25.7863 13.6384 25.906 13.6384C26.5043 13.1424 26.983 12.6465 27.4617 12.0266C27.2224 12.1506 27.2224 12.0266 27.2224 11.9026Z" fill="#062D3E"/>
</svg>
