<svg width="35" height="37" viewBox="0 0 35 37" fill="none" xmlns="http://www.w3.org/2000/svg">
<path d="M17.4724 36.2031C27.1222 36.2031 34.9449 28.0987 34.9449 18.1015C34.9449 8.10433 27.1222 0 17.4724 0C7.82267 0 0 8.10433 0 18.1015C0 28.0987 7.82267 36.2031 17.4724 36.2031Z" fill="white"/>
<path d="M27.9952 15.6389C28.0423 14.1584 27.7437 12.689 27.1271 11.3671C26.7087 10.8247 26.128 10.4586 25.4863 10.3327C22.832 10.0716 20.1667 9.96455 17.5018 10.0121C14.8466 9.96239 12.1909 10.066 9.5459 10.3224C9.02297 10.4255 8.53903 10.6915 8.15314 11.0878C7.29459 11.9463 7.1992 13.4151 7.1038 14.6563C6.9654 16.8879 6.9654 19.1272 7.1038 21.3588C7.1314 22.0574 7.22733 22.7509 7.38999 23.4275C7.50501 23.9499 7.73772 24.4332 8.06729 24.8342C8.4558 25.2515 8.95101 25.5326 9.48866 25.641C11.5453 25.9162 13.6175 26.0303 15.6893 25.9823C19.0281 26.034 21.9567 25.9823 25.4195 25.6927C25.9704 25.591 26.4795 25.3095 26.879 24.8859C27.1461 24.5962 27.3456 24.2416 27.461 23.8516C27.8021 22.7165 27.9697 21.5286 27.957 20.3348C27.9952 19.7556 27.9952 16.2595 27.9952 15.6389ZM15.3459 20.9554V14.5528L20.9932 17.7696C19.4097 18.7212 17.3205 19.797 15.3459 20.9554Z" fill="#062D3E"/>
</svg>
